<?xml version="1.0" encoding="utf-8"?>
<!-- Generator: Adobe Illustrator 26.1.0, SVG Export Plug-In . SVG Version: 6.00 Build 0)  -->
<svg version="1.1" id="Capa_1" xmlns="http://www.w3.org/2000/svg" xmlns:xlink="http://www.w3.org/1999/xlink" x="0px" y="0px"
	 viewBox="0 0 24 24" style="enable-background:new 0 0 24 24;" xml:space="preserve">
<style type="text/css">
	.st0{fill:none;stroke:#FFFFFF;stroke-width:1.5;stroke-linecap:round;stroke-linejoin:round;}
</style>
<path class="st0" d="M12.1,12.8c-0.1,0-0.2,0-0.2,0c-1.8-0.1-3.2-1.5-3.2-3.3c0-1.8,1.5-3.3,3.3-3.3c1.8,0,3.3,1.5,3.3,3.3
	C15.3,11.3,13.9,12.7,12.1,12.8z"/>
<path class="st0" d="M18.7,19.4C17,21,14.6,22,12,22c-2.6,0-5-1-6.7-2.6C5.4,18.4,6,17.5,7,16.8c2.7-1.8,7.2-1.8,9.9,0
	C18,17.5,18.6,18.4,18.7,19.4z"/>
<path class="st0" d="M12,22c5.5,0,10-4.5,10-10c0-5.5-4.5-10-10-10C6.5,2,2,6.5,2,12C2,17.5,6.5,22,12,22z"/>
</svg>
