<svg width="20" height="20" viewBox="0 0 20 20" fill="none" xmlns="http://www.w3.org/2000/svg">
<g id="ArrowsDownUp">
<path id="Vector" d="M6.48906 9.32686C6.37487 9.37423 6.2492 9.38668 6.12793 9.36262C6.00667 9.33856 5.89526 9.27908 5.80781 9.1917L3.30781 6.6917C3.2497 6.63366 3.2036 6.56473 3.17215 6.48885C3.14069 6.41298 3.12451 6.33165 3.12451 6.24952C3.12451 6.16738 3.14069 6.08605 3.17215 6.01018C3.2036 5.9343 3.2497 5.86537 3.30781 5.80733L5.80781 3.30733C5.89522 3.21982 6.00663 3.16022 6.12793 3.13606C6.24923 3.1119 6.37498 3.12428 6.48924 3.17163C6.60351 3.21897 6.70115 3.29916 6.76982 3.40203C6.83849 3.5049 6.87509 3.62583 6.875 3.74952V5.62452H16.25C16.4158 5.62452 16.5747 5.69036 16.6919 5.80757C16.8091 5.92478 16.875 6.08376 16.875 6.24952C16.875 6.41528 16.8091 6.57425 16.6919 6.69146C16.5747 6.80867 16.4158 6.87452 16.25 6.87452H6.875V8.74952C6.87497 8.87313 6.83829 8.99396 6.76959 9.09672C6.7009 9.19949 6.60327 9.27958 6.48906 9.32686ZM14.1922 16.6917L16.6922 14.1917C16.7503 14.1337 16.7964 14.0647 16.8278 13.9889C16.8593 13.913 16.8755 13.8317 16.8755 13.7495C16.8755 13.6674 16.8593 13.5861 16.8278 13.5102C16.7964 13.4343 16.7503 13.3654 16.6922 13.3073L14.1922 10.8073C14.1048 10.7198 13.9934 10.6602 13.8721 10.6361C13.7508 10.6119 13.625 10.6243 13.5108 10.6716C13.3965 10.719 13.2988 10.7992 13.2302 10.902C13.1615 11.0049 13.1249 11.1258 13.125 11.2495V13.1245H3.75C3.58424 13.1245 3.42527 13.1904 3.30805 13.3076C3.19084 13.4248 3.125 13.5838 3.125 13.7495C3.125 13.9153 3.19084 14.0742 3.30805 14.1915C3.42527 14.3087 3.58424 14.3745 3.75 14.3745H13.125V16.2495C13.1249 16.3732 13.1615 16.4941 13.2302 16.597C13.2988 16.6999 13.3965 16.7801 13.5108 16.8274C13.625 16.8747 13.7508 16.8871 13.8721 16.863C13.9934 16.8388 14.1048 16.7792 14.1922 16.6917Z" fill="#6A7781"/>
</g>
</svg>
