<svg width="24" height="25" viewBox="0 0 24 25" fill="none" xmlns="http://www.w3.org/2000/svg">
<path d="M19.5 12.4999C19.5002 14.4717 18.7239 16.3642 17.3391 17.7679C15.9543 19.1715 14.0724 19.9734 12.1008 19.9999H12C10.0846 20.0046 8.24084 19.2716 6.85156 17.953C6.7919 17.8966 6.74394 17.8289 6.71042 17.754C6.67689 17.679 6.65846 17.5982 6.65618 17.5161C6.65389 17.434 6.6678 17.3523 6.6971 17.2756C6.7264 17.1989 6.77052 17.1287 6.82695 17.069C6.88338 17.0093 6.951 16.9614 7.02597 16.9279C7.10093 16.8943 7.18176 16.8759 7.26385 16.8736C7.34593 16.8713 7.42766 16.8852 7.50438 16.9145C7.58109 16.9438 7.65128 16.988 7.71094 17.0444C8.60453 17.8871 9.72663 18.4479 10.9371 18.6566C12.1475 18.8653 13.3926 18.7127 14.5168 18.2179C15.641 17.7231 16.5945 16.908 17.2582 15.8745C17.9218 14.8409 18.2663 13.6347 18.2484 12.4065C18.2305 11.1784 17.8512 9.98271 17.1577 8.9689C16.4642 7.95509 15.4874 7.16808 14.3493 6.7062C13.2112 6.24431 11.9622 6.12802 10.7583 6.37186C9.55447 6.61569 8.44916 7.20884 7.58047 8.07721C7.57409 8.08411 7.5673 8.09064 7.56015 8.09674L6.73672 8.85065L8.06484 10.1788C8.15356 10.2658 8.2143 10.3774 8.23931 10.4991C8.26432 10.6209 8.25246 10.7473 8.20525 10.8623C8.15803 10.9773 8.07761 11.0756 7.97425 11.1446C7.87089 11.2136 7.74929 11.2503 7.625 11.2499H3.875C3.70924 11.2499 3.55027 11.184 3.43306 11.0668C3.31585 10.9496 3.25 10.7906 3.25 10.6249V6.87487C3.24928 6.75092 3.28543 6.62955 3.35386 6.5262C3.42229 6.42285 3.51991 6.34218 3.6343 6.29444C3.7487 6.24671 3.8747 6.23407 3.9963 6.25813C4.11789 6.28218 4.22959 6.34186 4.31719 6.42955L5.85234 7.96862L6.70703 7.18737C7.75702 6.14146 9.09333 5.43008 10.5473 5.14302C12.0012 4.85596 13.5077 5.00609 14.8764 5.57447C16.2451 6.14284 17.4147 7.10398 18.2376 8.33654C19.0605 9.56911 19.4998 11.0178 19.5 12.4999Z" fill="#4B5563"/>
</svg>
