<svg width="24" height="24" viewBox="0 0 24 24" fill="none" xmlns="http://www.w3.org/2000/svg">
<path d="M16.375 8.99766V8.5625C16.375 6.60312 13.4195 5.125 9.5 5.125C5.58047 5.125 2.625 6.60312 2.625 8.5625V11.6875C2.625 13.3195 4.67578 14.6164 7.625 15.0047V15.4375C7.625 17.3969 10.5805 18.875 14.5 18.875C18.4195 18.875 21.375 17.3969 21.375 15.4375V12.3125C21.375 10.6953 19.3891 9.39687 16.375 8.99766ZM6.375 13.4742C4.84453 13.0469 3.875 12.343 3.875 11.6875V10.5883C4.5125 11.0398 5.36641 11.4039 6.375 11.6484V13.4742ZM12.625 11.6484C13.6336 11.4039 14.4875 11.0398 15.125 10.5883V11.6875C15.125 12.343 14.1555 13.0469 12.625 13.4742V11.6484ZM11.375 17.2242C9.84453 16.7969 8.875 16.093 8.875 15.4375V15.1117C9.08047 15.1195 9.28828 15.125 9.5 15.125C9.80312 15.125 10.0992 15.1148 10.3898 15.0977C10.7127 15.2132 11.0416 15.3113 11.375 15.3914V17.2242ZM11.375 13.7383C10.7542 13.83 10.1275 13.8757 9.5 13.875C8.87249 13.8757 8.24578 13.83 7.625 13.7383V11.8797C8.2467 11.9607 8.87304 12.0009 9.5 12C10.127 12.0009 10.7533 11.9607 11.375 11.8797V13.7383ZM16.375 17.4883C15.1316 17.6706 13.8684 17.6706 12.625 17.4883V15.625C13.2465 15.7085 13.8729 15.7503 14.5 15.75C15.127 15.7509 15.7533 15.7107 16.375 15.6297V17.4883ZM20.125 15.4375C20.125 16.093 19.1555 16.7969 17.625 17.2242V15.3984C18.6336 15.1539 19.4875 14.7898 20.125 14.3383V15.4375Z" fill="#111012"/>
</svg>
