<?xml version="1.0" encoding="utf-8"?>
<!-- Generator: Adobe Illustrator 26.1.0, SVG Export Plug-In . SVG Version: 6.00 Build 0)  -->
<svg version="1.1" id="Capa_1" xmlns="http://www.w3.org/2000/svg" xmlns:xlink="http://www.w3.org/1999/xlink" x="0px" y="0px"
	 viewBox="0 0 25 24" style="enable-background:new 0 0 25 24;" xml:space="preserve">
<style type="text/css">
	.st0{fill:none;stroke:#FFFFFF;}
</style>
<path class="st0" d="M3,21.8h18.7"/>
<path class="st0" d="M6,8.2H3.6C3.3,8.2,3,8.5,3,8.8v9.5c0,0.3,0.3,0.6,0.6,0.6H6c0.3,0,0.6-0.3,0.6-0.6V8.8C6.6,8.5,6.4,8.2,6,8.2z
	"/>
<path class="st0" d="M13.2,5h-2.5c-0.3,0-0.6,0.3-0.6,0.6v12.7c0,0.3,0.3,0.6,0.6,0.6h2.5c0.3,0,0.6-0.3,0.6-0.6V5.6
	C13.8,5.3,13.6,5,13.2,5z"/>
<path class="st0" d="M20.4,1.8H18c-0.3,0-0.6,0.3-0.6,0.6v15.9c0,0.3,0.3,0.6,0.6,0.6h2.5c0.3,0,0.6-0.3,0.6-0.6V2.4
	C21,2.1,20.8,1.8,20.4,1.8z"/>
</svg>
