<svg width="24" height="24" viewBox="0 0 24 24" fill="none" xmlns="http://www.w3.org/2000/svg">
<path d="M8.84588 10.704L12.0019 7.54927L15.1593 10.7066L16.9946 8.86995L12.0019 3.87598L7.00923 8.86867L8.84588 10.704Z" fill="#F3BA2F"/>
<path d="M3.875 12.0017L5.71036 10.165L7.547 12.0017L5.71036 13.837L3.875 12.0017Z" fill="#F3BA2F"/>
<path d="M8.84588 13.2982L12.0019 16.4542L15.1593 13.2969L16.9959 15.131L12.0032 20.1249L7.00923 15.1348L8.84588 13.2982Z" fill="#F3BA2F"/>
<path d="M16.453 12.0017L18.2884 10.165L20.125 12.0004L18.2884 13.8383L16.453 12.0017Z" fill="#F3BA2F"/>
<path d="M13.8642 12.0003L12.0019 10.1367L10.6248 11.5139L10.4656 11.6717L10.1396 11.9977L12.0019 13.8588L13.8642 12.0016V12.0003Z" fill="#F3BA2F"/>
</svg>
