<svg width="24" height="24" viewBox="0 0 24 24" fill="none" xmlns="http://www.w3.org/2000/svg">
<path d="M15.1634 17.5866C15.3396 17.7627 15.4385 18.0016 15.4385 18.2507C15.4385 18.4997 15.3396 18.7386 15.1634 18.9147C14.9873 19.0908 14.7484 19.1898 14.4994 19.1898C14.2503 19.1898 14.0114 19.0908 13.8353 18.9147L7.58531 12.6647C7.49791 12.5776 7.42856 12.4741 7.38124 12.3602C7.33393 12.2462 7.30957 12.124 7.30957 12.0006C7.30957 11.8773 7.33393 11.7551 7.38124 11.6411C7.42856 11.5272 7.49791 11.4237 7.58531 11.3366L13.8353 5.08659C14.0114 4.91047 14.2503 4.81152 14.4994 4.81152C14.7484 4.81152 14.9873 4.91047 15.1634 5.08659C15.3396 5.26271 15.4385 5.50158 15.4385 5.75065C15.4385 5.99972 15.3396 6.23859 15.1634 6.41471L9.57828 11.9999L15.1634 17.5866Z" fill="#252C32"/>
</svg>
