<svg width="24" height="24" viewBox="0 0 24 24" fill="none" xmlns="http://www.w3.org/2000/svg">
<path d="M18.25 4.5H16.375V3.875C16.375 3.70924 16.3092 3.55027 16.1919 3.43306C16.0747 3.31585 15.9158 3.25 15.75 3.25C15.5842 3.25 15.4253 3.31585 15.3081 3.43306C15.1908 3.55027 15.125 3.70924 15.125 3.875V4.5H8.875V3.875C8.875 3.70924 8.80915 3.55027 8.69194 3.43306C8.57473 3.31585 8.41576 3.25 8.25 3.25C8.08424 3.25 7.92527 3.31585 7.80806 3.43306C7.69085 3.55027 7.625 3.70924 7.625 3.875V4.5H5.75C5.41848 4.5 5.10054 4.6317 4.86612 4.86612C4.6317 5.10054 4.5 5.41848 4.5 5.75V18.25C4.5 18.5815 4.6317 18.8995 4.86612 19.1339C5.10054 19.3683 5.41848 19.5 5.75 19.5H18.25C18.5815 19.5 18.8995 19.3683 19.1339 19.1339C19.3683 18.8995 19.5 18.5815 19.5 18.25V5.75C19.5 5.41848 19.3683 5.10054 19.1339 4.86612C18.8995 4.6317 18.5815 4.5 18.25 4.5ZM18.25 8.25H5.75V5.75H7.625V6.375C7.625 6.54076 7.69085 6.69973 7.80806 6.81694C7.92527 6.93415 8.08424 7 8.25 7C8.41576 7 8.57473 6.93415 8.69194 6.81694C8.80915 6.69973 8.875 6.54076 8.875 6.375V5.75H15.125V6.375C15.125 6.54076 15.1908 6.69973 15.3081 6.81694C15.4253 6.93415 15.5842 7 15.75 7C15.9158 7 16.0747 6.93415 16.1919 6.81694C16.3092 6.69973 16.375 6.54076 16.375 6.375V5.75H18.25V8.25Z" fill="#252C32"/>
</svg>
