<svg width="24" height="24" viewBox="0 0 24 24" fill="none" xmlns="http://www.w3.org/2000/svg">
<path d="M18.2883 16.9615C18.4644 17.1376 18.5634 17.3765 18.5634 17.6256C18.5634 17.8746 18.4644 18.1135 18.2883 18.2896C18.1122 18.4657 17.8733 18.5647 17.6242 18.5647C17.3752 18.5647 17.1363 18.4657 16.9602 18.2896L12 13.3279L7.03831 18.2881C6.86219 18.4642 6.62332 18.5631 6.37425 18.5631C6.12517 18.5631 5.8863 18.4642 5.71018 18.2881C5.53406 18.1119 5.43512 17.8731 5.43512 17.624C5.43512 17.3749 5.53406 17.136 5.71018 16.9599L10.6719 11.9998L5.71175 7.03805C5.53563 6.86193 5.43668 6.62306 5.43668 6.37399C5.43668 6.12492 5.53563 5.88605 5.71175 5.70993C5.88787 5.53381 6.12674 5.43486 6.37581 5.43486C6.62488 5.43486 6.86375 5.53381 7.03987 5.70993L12 10.6716L16.9617 5.70915C17.1379 5.53303 17.3767 5.43408 17.6258 5.43408C17.8749 5.43408 18.1137 5.53303 18.2899 5.70915C18.466 5.88527 18.5649 6.12414 18.5649 6.37321C18.5649 6.62228 18.466 6.86115 18.2899 7.03727L13.3282 11.9998L18.2883 16.9615Z" fill="#C41200"/>
</svg>
