<svg width="20" height="20" viewBox="0 0 20 20" fill="none" xmlns="http://www.w3.org/2000/svg">
<g id="CaretUpDown">
<path id="Vector" d="M5.67266 6.48955C5.62529 6.37536 5.61284 6.24969 5.6369 6.12843C5.66096 6.00716 5.72044 5.89576 5.80782 5.8083L9.55782 2.0583C9.61586 2.00019 9.68479 1.95409 9.76067 1.92264C9.83654 1.89119 9.91787 1.875 10 1.875C10.0821 1.875 10.1635 1.89119 10.2393 1.92264C10.3152 1.95409 10.3841 2.00019 10.4422 2.0583L14.1922 5.8083C14.2797 5.89571 14.3393 6.00712 14.3635 6.12843C14.3876 6.24973 14.3752 6.37547 14.3279 6.48974C14.2805 6.604 14.2004 6.70165 14.0975 6.77032C13.9946 6.83899 13.8737 6.87559 13.75 6.87549H6.25C6.12639 6.87547 6.00556 6.83879 5.9028 6.77009C5.80003 6.70139 5.71994 6.60377 5.67266 6.48955ZM13.75 13.1255H6.25C6.12632 13.1254 6.00539 13.162 5.90252 13.2307C5.79964 13.2993 5.71946 13.397 5.67211 13.5112C5.62477 13.6255 5.61239 13.7513 5.63655 13.8726C5.6607 13.9939 5.72031 14.1053 5.80782 14.1927L9.55782 17.9427C9.61586 18.0008 9.68479 18.0469 9.76067 18.0783C9.83654 18.1098 9.91787 18.126 10 18.126C10.0821 18.126 10.1635 18.1098 10.2393 18.0783C10.3152 18.0469 10.3841 18.0008 10.4422 17.9427L14.1922 14.1927C14.2797 14.1053 14.3393 13.9939 14.3635 13.8726C14.3876 13.7513 14.3752 13.6255 14.3279 13.5112C14.2805 13.397 14.2004 13.2993 14.0975 13.2307C13.9946 13.162 13.8737 13.1254 13.75 13.1255Z" fill="#6A7781"/>
</g>
</svg>
