<svg width="20" height="20" viewBox="0 0 20 20" fill="none" xmlns="http://www.w3.org/2000/svg">
<g id="CaretRight">
<path id="Vector" d="M14.4133 10.6637L8.16328 16.9137C7.98716 17.0899 7.74829 17.1888 7.49922 17.1888C7.25015 17.1888 7.01128 17.0899 6.83516 16.9137C6.65904 16.7376 6.56009 16.4987 6.56009 16.2497C6.56009 16.0006 6.65904 15.7617 6.83516 15.5856L12.4219 10.0005L6.83672 4.41374C6.74951 4.32653 6.68034 4.223 6.63314 4.10906C6.58595 3.99512 6.56166 3.873 6.56166 3.74967C6.56166 3.62635 6.58595 3.50422 6.63314 3.39028C6.68034 3.27634 6.74951 3.17282 6.83672 3.08561C6.92393 2.9984 7.02745 2.92923 7.14139 2.88203C7.25533 2.83484 7.37745 2.81055 7.50078 2.81055C7.62411 2.81055 7.74623 2.83484 7.86017 2.88203C7.97411 2.92923 8.07764 2.9984 8.16484 3.08561L14.4148 9.33561C14.5021 9.42281 14.5714 9.52638 14.6186 9.6404C14.6657 9.75441 14.6899 9.87661 14.6898 10C14.6897 10.1234 14.6652 10.2455 14.6177 10.3594C14.5703 10.4733 14.5008 10.5767 14.4133 10.6637Z" fill="#252C32"/>
</g>
</svg>
