<svg width="24" height="24" viewBox="0 0 24 24" fill="none" xmlns="http://www.w3.org/2000/svg">
<path d="M18.9133 10.1635L12.6633 16.4135C12.5762 16.5009 12.4727 16.5703 12.3588 16.6176C12.2448 16.6649 12.1226 16.6893 11.9992 16.6893C11.8759 16.6893 11.7537 16.6649 11.6397 16.6176C11.5258 16.5703 11.4223 16.5009 11.3352 16.4135L5.08518 10.1635C4.90906 9.98742 4.81012 9.74855 4.81012 9.49948C4.81012 9.25041 4.90906 9.01154 5.08518 8.83542C5.2613 8.65929 5.50017 8.56035 5.74925 8.56035C5.99832 8.56035 6.23719 8.65929 6.41331 8.83542L12 14.4221L17.5867 8.83463C17.7629 8.65851 18.0017 8.55957 18.2508 8.55957C18.4999 8.55957 18.7387 8.65851 18.9149 8.83463C19.091 9.01075 19.1899 9.24963 19.1899 9.4987C19.1899 9.74777 19.091 9.98664 18.9149 10.1628L18.9133 10.1635Z" fill="#373389"/>
</svg>
