<svg width="20" height="20" viewBox="0 0 20 20" fill="none" xmlns="http://www.w3.org/2000/svg">
<g id="CaretLeft">
<path id="Vector" d="M13.1633 15.5876C13.3394 15.7637 13.4383 16.0026 13.4383 16.2516C13.4383 16.5007 13.3394 16.7396 13.1633 16.9157C12.9872 17.0918 12.7483 17.1908 12.4992 17.1908C12.2501 17.1908 12.0113 17.0918 11.8352 16.9157L5.58516 10.6657C5.49776 10.5786 5.42841 10.4751 5.38109 10.3611C5.33377 10.2472 5.30942 10.125 5.30942 10.0016C5.30942 9.87824 5.33377 9.75606 5.38109 9.64211C5.42841 9.52815 5.49776 9.42466 5.58516 9.33756L11.8352 3.08756C12.0113 2.91144 12.2501 2.8125 12.4992 2.8125C12.7483 2.8125 12.9872 2.91144 13.1633 3.08756C13.3394 3.26368 13.4383 3.50255 13.4383 3.75163C13.4383 4.0007 13.3394 4.23957 13.1633 4.41569L7.57813 10.0008L13.1633 15.5876Z" fill="#E5E9EB"/>
</g>
</svg>
