<svg width="24" height="24" viewBox="0 0 24 24" fill="none" xmlns="http://www.w3.org/2000/svg">
<path d="M16.4132 12.6632L10.1632 18.9132C9.98713 19.0894 9.74826 19.1883 9.49918 19.1883C9.25011 19.1883 9.01124 19.0894 8.83512 18.9132C8.659 18.7371 8.56006 18.4983 8.56006 18.2492C8.56006 18.0001 8.659 17.7612 8.83512 17.5851L14.4218 12L8.83668 6.41325C8.74948 6.32604 8.6803 6.22251 8.63311 6.10857C8.58591 5.99463 8.56162 5.87251 8.56162 5.74918C8.56162 5.62586 8.58591 5.50374 8.63311 5.3898C8.6803 5.27586 8.74948 5.17233 8.83668 5.08512C8.92389 4.99792 9.02742 4.92874 9.14136 4.88155C9.2553 4.83435 9.37742 4.81006 9.50075 4.81006C9.62408 4.81006 9.7462 4.83435 9.86014 4.88155C9.97408 4.92874 10.0776 4.99792 10.1648 5.08512L16.4148 11.3351C16.5021 11.4223 16.5713 11.5259 16.6185 11.6399C16.6657 11.7539 16.6899 11.8761 16.6898 11.9995C16.6896 12.1229 16.6651 12.245 16.6177 12.3589C16.5702 12.4728 16.5007 12.5763 16.4132 12.6632Z" fill="#252C32"/>
</svg>
