<svg width="25" height="24" viewBox="0 0 25 24" fill="none" xmlns="http://www.w3.org/2000/svg">
<path d="M20.7701 9.5C20.7701 9.16848 20.6384 8.85054 20.404 8.61612C20.1696 8.3817 19.8517 8.25 19.5201 8.25H17.0201V5.75C17.0201 5.41848 16.8884 5.10054 16.654 4.86612C16.4196 4.6317 16.1017 4.5 15.7701 4.5H5.77014C5.43862 4.5 5.12068 4.6317 4.88626 4.86612C4.65184 5.10054 4.52014 5.41848 4.52014 5.75V15.75C4.52051 15.8676 4.55404 15.9827 4.61688 16.0821C4.67972 16.1814 4.76932 16.2611 4.87539 16.3118C4.98146 16.3626 5.09969 16.3824 5.2165 16.369C5.33332 16.3555 5.44398 16.3094 5.53577 16.2359L8.27014 14.0312V16.375C8.27014 16.7065 8.40184 17.0245 8.63626 17.2589C8.87068 17.4933 9.18862 17.625 9.52014 17.625H16.8319L19.7545 19.9859C19.8651 20.0754 20.0029 20.1244 20.1451 20.125C20.3109 20.125 20.4699 20.0592 20.5871 19.9419C20.7043 19.8247 20.7701 19.6658 20.7701 19.5V9.5ZM17.4459 16.5141C17.3353 16.4246 17.1975 16.3756 17.0553 16.375H9.52014V13.875H15.7701C16.1017 13.875 16.4196 13.7433 16.654 13.5089C16.8884 13.2745 17.0201 12.9565 17.0201 12.625V9.5H19.5201V18.1914L17.4459 16.5141Z" fill="#111012"/>
</svg>
