<svg width="24" height="24" viewBox="0 0 24 24" fill="none" xmlns="http://www.w3.org/2000/svg">
<path d="M24 7.68C24 7.17078 23.8055 6.68243 23.4593 6.32236C23.1131 5.96229 22.6435 5.76 22.1538 5.76H18.4615V1.92C18.4615 1.41078 18.267 0.922425 17.9208 0.562355C17.5746 0.202285 17.105 0 16.6154 0H1.84615C1.35652 0 0.886947 0.202285 0.540726 0.562355C0.194505 0.922425 0 1.41078 0 1.92V17.28C0.000541976 17.4606 0.0500622 17.6374 0.142872 17.79C0.235681 17.9427 0.368015 18.065 0.52467 18.143C0.681325 18.2209 0.855947 18.2513 1.02847 18.2307C1.201 18.2101 1.36443 18.1393 1.5 18.0264L5.53846 14.64V18.24C5.53846 18.7492 5.73297 19.2376 6.07919 19.5976C6.42541 19.9577 6.89498 20.16 7.38462 20.16H18.1835L22.5 23.7864C22.6633 23.9238 22.8668 23.9991 23.0769 24C23.3217 24 23.5565 23.8989 23.7296 23.7188C23.9027 23.5388 24 23.2946 24 23.04V7.68ZM19.0904 18.4536C18.927 18.3162 18.7235 18.2409 18.5135 18.24H7.38462V14.4H16.6154C17.105 14.4 17.5746 14.1977 17.9208 13.8376C18.267 13.4776 18.4615 12.9892 18.4615 12.48V7.68H22.1538V21.03L19.0904 18.4536Z" fill="#F9F9F7"/>
</svg>
