<?xml version="1.0" encoding="utf-8"?>
<!-- Generator: Adobe Illustrator 26.1.0, SVG Export Plug-In . SVG Version: 6.00 Build 0)  -->
<svg version="1.1" id="Capa_1" xmlns="http://www.w3.org/2000/svg" xmlns:xlink="http://www.w3.org/1999/xlink" x="0px" y="0px"
	 viewBox="0 0 40 40" style="enable-background:new 0 0 40 40;" xml:space="preserve">
<style type="text/css">
	.st0{fill:#5545FA;}
</style>
<g id="CheckCircle">
	<path id="Vector" class="st0" d="M20,3.8c-3.2,0-6.4,1-9,2.7c-2.7,1.8-4.8,4.3-6,7.3c-1.2,3-1.6,6.2-0.9,9.4s2.2,6,4.4,8.3
		c2.3,2.3,5.2,3.8,8.3,4.4c3.2,0.6,6.4,0.3,9.4-0.9c3-1.2,5.5-3.3,7.3-6c1.8-2.7,2.7-5.8,2.7-9c0-4.3-1.7-8.4-4.8-11.5
		C28.4,5.5,24.3,3.8,20,3.8z M27.1,17.1l-8.8,8.8c-0.1,0.1-0.3,0.2-0.4,0.3c-0.2,0.1-0.3,0.1-0.5,0.1s-0.3,0-0.5-0.1
		c-0.2-0.1-0.3-0.2-0.4-0.3l-3.8-3.8c-0.2-0.2-0.4-0.6-0.4-0.9s0.1-0.6,0.4-0.9c0.2-0.2,0.6-0.4,0.9-0.4s0.6,0.1,0.9,0.4l2.9,2.9
		l7.9-7.9c0.1-0.1,0.3-0.2,0.4-0.3c0.2-0.1,0.3-0.1,0.5-0.1c0.2,0,0.3,0,0.5,0.1c0.2,0.1,0.3,0.2,0.4,0.3c0.1,0.1,0.2,0.3,0.3,0.4
		c0.1,0.2,0.1,0.3,0.1,0.5s0,0.3-0.1,0.5C27.3,16.9,27.3,17,27.1,17.1z"/>
</g>
</svg>
