<svg width="15" height="15" viewBox="0 0 15 15" fill="none" xmlns="http://www.w3.org/2000/svg">
<g clip-path="url(#clip0_118_29835)">
<path d="M7.5 0C3.36433 0 0 3.36433 0 7.5C0 11.6357 3.36433 15 7.5 15C11.6357 15 15 11.6357 15 7.5C15 3.36433 11.6357 0 7.5 0Z" fill="#F9F9F7"/>
<path d="M11.3013 5.9108L7.23873 9.97322C7.11685 10.0951 6.95686 10.1564 6.79688 10.1564C6.63689 10.1564 6.4769 10.0951 6.35502 9.97322L4.32381 7.94201C4.07936 7.69768 4.07936 7.30263 4.32381 7.0583C4.56814 6.81385 4.96307 6.81385 5.20752 7.0583L6.79688 8.64765L10.4176 5.02708C10.6619 4.78264 11.0568 4.78264 11.3013 5.02708C11.5456 5.27142 11.5456 5.66635 11.3013 5.9108Z" fill="#6200EE"/>
</g>
<defs>
<clipPath id="clip0_118_29835">
<rect width="15" height="15" fill="white"/>
</clipPath>
</defs>
</svg>
