<svg width="18" height="18" viewBox="0 0 18 18" fill="none" xmlns="http://www.w3.org/2000/svg">
<g id="Clip path group">
<mask id="mask0_1036_10213" style="mask-type:luminance" maskUnits="userSpaceOnUse" x="0" y="0" width="18" height="18">
<g id="clippath">
<path id="Vector" d="M17.125 0.875H0.875V17.125H17.125V0.875Z" fill="white"/>
</g>
</mask>
<g mask="url(#mask0_1036_10213)">
<g id="Group">
<path id="Vector_2" fill-rule="evenodd" clip-rule="evenodd" d="M1.42664 3.64605C0.875 4.73224 0.875 6.15625 0.875 9C0.875 11.8438 0.875 13.2678 1.42664 14.3539C1.91414 15.3076 2.69243 16.0859 3.64605 16.5734C4.73224 17.125 6.15625 17.125 9 17.125C11.8438 17.125 13.2678 17.125 14.3539 16.5734C15.3076 16.0859 16.0859 15.3076 16.5734 14.3539C17.125 13.2678 17.125 11.8438 17.125 9C17.125 6.15625 17.125 4.73224 16.5734 3.64605C16.0859 2.69243 15.3076 1.91414 14.3539 1.42664C13.2678 0.875 11.8438 0.875 9 0.875C6.15625 0.875 4.73224 0.875 3.64605 1.42664C2.69243 1.91414 1.91414 2.69243 1.42664 3.64605ZM13.0539 5.25395C13.1951 5.25395 13.3319 5.31382 13.4303 5.41217C13.5286 5.5148 13.5842 5.65164 13.5842 5.78849C13.5586 7.3023 13.4987 8.46118 13.3918 9.37632C13.2849 10.2914 13.1266 10.9714 12.8829 11.523C12.7204 11.8908 12.5194 12.1944 12.2842 12.4553C11.9678 12.7974 11.6043 13.0454 11.2066 13.2849C11.0355 13.3875 10.8602 13.4859 10.6763 13.5928C10.2829 13.8151 9.85099 14.0632 9.35921 14.3924C9.17961 14.5122 8.94868 14.5122 8.77336 14.3924C8.27303 14.0589 7.83684 13.8109 7.43915 13.5842C7.34934 13.5329 7.26382 13.4859 7.17829 13.4345C6.71217 13.1651 6.29309 12.9086 5.92961 12.5365C5.68586 12.2928 5.47632 11.9977 5.30954 11.6428C5.08289 11.1724 4.92467 10.5993 4.81349 9.85954C4.65954 8.87171 4.58684 7.58026 4.55691 5.78849C4.55691 5.64737 4.60822 5.51053 4.70658 5.41217C4.80493 5.31382 4.94178 5.25395 5.08289 5.25395H5.30099C5.97237 5.25395 7.46053 5.1898 8.74342 4.18914C8.93585 4.04375 9.20099 4.04375 9.38914 4.18914C10.672 5.1898 12.1602 5.25395 12.8359 5.25395H13.0582H13.0539ZM11.8737 11.1895C12.0405 10.8474 12.1773 10.3813 12.2799 9.70559C12.4039 8.89737 12.4809 7.80263 12.5151 6.3102C11.724 6.28882 10.3641 6.13487 9.06415 5.2625C7.76842 6.13487 6.40428 6.28454 5.61743 6.3102C5.64737 7.54605 5.70296 8.50395 5.78849 9.25658C5.89112 10.1161 6.03651 10.6977 6.21612 11.1039C6.33586 11.3776 6.46842 11.5701 6.62664 11.7454C6.83618 11.9763 7.10559 12.1687 7.46908 12.3868C7.61875 12.4766 7.78553 12.5707 7.96513 12.6734C8.28586 12.8572 8.65789 13.0625 9.06842 13.3276C9.4704 13.0711 9.83388 12.8615 10.1546 12.6819C10.2487 12.6263 10.3428 12.575 10.4283 12.5237C10.8773 12.2671 11.2066 12.0533 11.4503 11.8053C11.6171 11.6342 11.7497 11.4503 11.8737 11.1937V11.1895Z" fill="#3375BB"/>
</g>
</g>
</g>
</svg>
