<svg width="20" height="21" viewBox="0 0 20 21" fill="none" xmlns="http://www.w3.org/2000/svg">
<g id="ClockClockwise">
<path id="Vector" d="M10.625 6.75012V10.1462L13.4469 11.8392C13.589 11.9245 13.6914 12.0629 13.7316 12.2238C13.7717 12.3846 13.7463 12.5549 13.6609 12.697C13.5756 12.8391 13.4372 12.9415 13.2764 12.9817C13.1155 13.0218 12.9453 12.9964 12.8031 12.9111L9.67812 11.0361C9.58563 10.9805 9.50911 10.9019 9.45599 10.808C9.40287 10.7141 9.37497 10.608 9.375 10.5001V6.75012C9.375 6.58436 9.44085 6.42539 9.55806 6.30818C9.67527 6.19097 9.83424 6.12512 10 6.12512C10.1658 6.12512 10.3247 6.19097 10.4419 6.30818C10.5592 6.42539 10.625 6.58436 10.625 6.75012ZM17.7391 4.92277C17.6249 4.8754 17.4992 4.86296 17.3779 4.88701C17.2567 4.91107 17.1453 4.97055 17.0578 5.05793L16.0937 6.02434C15.8414 5.75012 15.5812 5.47746 15.3047 5.19699C14.2624 4.15458 12.936 3.44243 11.4913 3.14954C10.0465 2.85664 8.54754 2.99599 7.18155 3.55017C5.81557 4.10435 4.64318 5.04878 3.81089 6.26546C2.97859 7.48214 2.52329 8.91712 2.50189 10.3911C2.48048 11.865 2.89391 13.3126 3.69052 14.553C4.48713 15.7933 5.63159 16.7714 6.9809 17.365C8.33021 17.9586 9.82454 18.1415 11.2772 17.8906C12.7298 17.6398 14.0763 16.9665 15.1484 15.9548C15.2081 15.8984 15.2562 15.8307 15.2897 15.7558C15.3233 15.6808 15.3418 15.5999 15.3441 15.5178C15.3464 15.4357 15.3325 15.3539 15.3033 15.2771C15.274 15.2004 15.2299 15.1301 15.1734 15.0704C15.117 15.0107 15.0494 14.9627 14.9744 14.9291C14.8994 14.8956 14.8185 14.8771 14.7364 14.8748C14.6543 14.8724 14.5725 14.8863 14.4958 14.9156C14.419 14.9449 14.3488 14.989 14.2891 15.0454C13.3957 15.8884 12.2737 16.4494 11.0634 16.6585C9.85299 16.8675 8.60786 16.7152 7.48351 16.2207C6.35916 15.7262 5.40544 14.9114 4.7415 13.878C4.07756 12.8446 3.73283 11.6385 3.75038 10.4103C3.76793 9.18218 4.14698 7.98641 4.84017 6.97241C5.53336 5.95842 6.50997 5.17116 7.64799 4.70897C8.78601 4.24679 10.035 4.13018 11.2389 4.37371C12.4428 4.61723 13.5483 5.2101 14.4172 6.07824C14.6937 6.35793 14.9539 6.63293 15.207 6.90871L13.9328 8.18293C13.8453 8.27034 13.7857 8.38175 13.7615 8.50305C13.7374 8.62435 13.7498 8.7501 13.7971 8.86436C13.8445 8.97863 13.9246 9.07627 14.0275 9.14494C14.1304 9.21361 14.2513 9.25022 14.375 9.25012H17.5C17.6658 9.25012 17.8247 9.18427 17.9419 9.06706C18.0592 8.94985 18.125 8.79088 18.125 8.62512V5.50012C18.125 5.37651 18.0883 5.25568 18.0196 5.15291C17.9509 5.05014 17.8533 4.97006 17.7391 4.92277Z" fill="#876401"/>
</g>
</svg>
