<?xml version="1.0" encoding="utf-8"?>
<!-- Generator: Adobe Illustrator 26.1.0, SVG Export Plug-In . SVG Version: 6.00 Build 0)  -->
<svg version="1.1" id="Capa_1" xmlns="http://www.w3.org/2000/svg" xmlns:xlink="http://www.w3.org/1999/xlink" x="0px" y="0px"
	 viewBox="0 0 100.1 100" style="enable-background:new 0 0 100.1 100;" xml:space="preserve">
<style type="text/css">
	.st0{fill:#FFFFFF;}
</style>
<path class="st0" d="M13.9,0h39.7c4.6-0.2,9,1.8,11.9,5.4c3.1,3.8,3.3,8.9,2.8,13.5c-0.4,3.2-4.7,5.2-7.2,3c-3.5-2.8-0.3-8-3-11.2
	c-1.4-1.8-4-1.4-6-1.5c-12.6,0.1-25.3-0.1-38,0.1c-2.5-0.2-4.6,1.6-4.8,4.1c0,0.2,0,0.4,0,0.6C9.3,26.7,9.4,39.4,9.3,52
	c0,2.1-0.2,4.5,1.6,6C14,60.6,19.2,57.6,22,61c2.4,2.5,0.3,6.8-2.9,7.3c-4.6,0.4-9.7,0.3-13.5-2.8c-3.4-2.7-5.4-6.7-5.5-11.1V15.3
	C-0.5,7.4,5.5,0.6,13.4,0C13.5,0,13.7,0,13.9,0z M32,86.1c-0.3,7.5,6.4,14.4,14,13.9h41.4c6.8-0.2,12.9-6.4,12.8-13.2V44.5
	c-0.4-7-6.9-12.7-13.9-12.5c-13.8,0-27.5-0.2-41.3,0.1c-7.2,0.2-13.2,6.8-12.9,13.9C31.9,59.3,31.9,72.7,32,86.1z M86.2,41.1
	c2.5-0.2,4.6,1.6,4.8,4.1c0,0.2,0,0.5,0,0.7c0.1,13.4,0,26.8,0.1,40.1c0.1,2.6-2,4.8-4.6,4.9c-0.1,0-0.2,0-0.3,0
	c-13.4,0.2-26.8,0.1-40.3,0c-2.6,0.1-5.1-2.2-4.7-4.9c0-13.7-0.1-27.4,0-41.1c-0.1-1.6,1.3-2.6,2.2-3.7
	C57.7,40.9,71.9,41.2,86.2,41.1z"/>
</svg>
