<svg width="24" height="24" viewBox="0 0 24 24" fill="none" xmlns="http://www.w3.org/2000/svg">
<path d="M18.2883 16.9615C18.4644 17.1376 18.5633 17.3765 18.5633 17.6256C18.5633 17.8746 18.4644 18.1135 18.2883 18.2896C18.1122 18.4657 17.8733 18.5647 17.6242 18.5647C17.3751 18.5647 17.1363 18.4657 16.9602 18.2896L12 13.3279L7.03828 18.2881C6.86216 18.4642 6.62329 18.5631 6.37422 18.5631C6.12514 18.5631 5.88627 18.4642 5.71015 18.2881C5.53403 18.1119 5.43509 17.8731 5.43509 17.624C5.43509 17.3749 5.53403 17.136 5.71015 16.9599L10.6719 11.9998L5.71172 7.03805C5.53559 6.86193 5.43665 6.62306 5.43665 6.37399C5.43665 6.12492 5.53559 5.88605 5.71172 5.70993C5.88784 5.53381 6.12671 5.43486 6.37578 5.43486C6.62485 5.43486 6.86372 5.53381 7.03984 5.70993L12 10.6716L16.9617 5.70915C17.1378 5.53303 17.3767 5.43408 17.6258 5.43408C17.8748 5.43408 18.1137 5.53303 18.2898 5.70915C18.466 5.88527 18.5649 6.12414 18.5649 6.37321C18.5649 6.62228 18.466 6.86115 18.2898 7.03727L13.3281 11.9998L18.2883 16.9615Z" fill="#373389"/>
</svg>
