<?xml version="1.0" encoding="utf-8"?>
<!-- Generator: Adobe Illustrator 26.1.0, SVG Export Plug-In . SVG Version: 6.00 Build 0)  -->
<svg version="1.1" id="Capa_1" xmlns="http://www.w3.org/2000/svg" xmlns:xlink="http://www.w3.org/1999/xlink" x="0px" y="0px"
	 viewBox="0 0 25 24" style="enable-background:new 0 0 25 24;" xml:space="preserve">
<style type="text/css">
	.st0{fill:none;stroke:#FFFFFF;stroke-width:1.5;stroke-linecap:round;stroke-linejoin:round;}
</style>
<path class="st0" d="M17,21H7c-4,0-5-1-5-5V8c0-4,1-5,5-5h10c4,0,5,1,5,5v8C22,20,21,21,17,21z"/>
<path class="st0" d="M14,8h5"/>
<path class="st0" d="M15,12h4"/>
<path class="st0" d="M17,16h2"/>
<path class="st0" d="M8.5,11.3c1,0,1.8-0.8,1.8-1.8c0-1-0.8-1.8-1.8-1.8c-1,0-1.8,0.8-1.8,1.8C6.7,10.5,7.5,11.3,8.5,11.3z"/>
<path class="st0" d="M12,16.3c-0.1-1.4-1.3-2.6-2.7-2.7c-0.5,0-1,0-1.5,0c-1.4,0.1-2.6,1.3-2.7,2.7"/>
</svg>
