<svg width="24" height="24" viewBox="0 0 24 24" fill="none" xmlns="http://www.w3.org/2000/svg">
<path d="M14.1875 12C14.1875 12.4326 14.0592 12.8556 13.8188 13.2153C13.5785 13.575 13.2368 13.8554 12.8371 14.021C12.4374 14.1866 11.9976 14.2299 11.5732 14.1455C11.1489 14.0611 10.7591 13.8527 10.4532 13.5468C10.1473 13.2409 9.93894 12.8511 9.85453 12.4268C9.77013 12.0024 9.81345 11.5626 9.97901 11.1629C10.1446 10.7632 10.425 10.4215 10.7847 10.1812C11.1444 9.94079 11.5674 9.8125 12 9.8125C12.5802 9.8125 13.1366 10.043 13.5468 10.4532C13.957 10.8634 14.1875 11.4198 14.1875 12ZM5.75 9.8125C5.31735 9.8125 4.89442 9.94079 4.53469 10.1812C4.17496 10.4215 3.89458 10.7632 3.72901 11.1629C3.56345 11.5626 3.52013 12.0024 3.60453 12.4268C3.68894 12.8511 3.89728 13.2409 4.2032 13.5468C4.50913 13.8527 4.89891 14.0611 5.32324 14.1455C5.74757 14.2299 6.18741 14.1866 6.58712 14.021C6.98683 13.8554 7.32848 13.575 7.56884 13.2153C7.80921 12.8556 7.9375 12.4326 7.9375 12C7.9375 11.4198 7.70703 10.8634 7.2968 10.4532C6.88656 10.043 6.33016 9.8125 5.75 9.8125ZM18.25 9.8125C17.8174 9.8125 17.3944 9.94079 17.0347 10.1812C16.675 10.4215 16.3946 10.7632 16.229 11.1629C16.0634 11.5626 16.0201 12.0024 16.1045 12.4268C16.1889 12.8511 16.3973 13.2409 16.7032 13.5468C17.0091 13.8527 17.3989 14.0611 17.8232 14.1455C18.2476 14.2299 18.6874 14.1866 19.0871 14.021C19.4868 13.8554 19.8285 13.575 20.0688 13.2153C20.3092 12.8556 20.4375 12.4326 20.4375 12C20.4375 11.7127 20.3809 11.4283 20.271 11.1629C20.1611 10.8975 19.9999 10.6563 19.7968 10.4532C19.5937 10.2501 19.3525 10.0889 19.0871 9.97901C18.8217 9.86908 18.5373 9.8125 18.25 9.8125Z" fill="#6A7781"/>
</svg>
