<svg width="24" height="24" viewBox="0 0 24 24" fill="none" xmlns="http://www.w3.org/2000/svg">
<path d="M8.43281 11.1922C8.34531 11.1048 8.2857 10.9934 8.26154 10.8721C8.23739 10.7508 8.24977 10.625 8.29711 10.5108C8.34446 10.3965 8.42464 10.2988 8.52751 10.2302C8.63038 10.1615 8.75132 10.1249 8.875 10.125H11.375V5.125C11.375 4.95924 11.4408 4.80027 11.5581 4.68306C11.6753 4.56585 11.8342 4.5 12 4.5C12.1658 4.5 12.3247 4.56585 12.4419 4.68306C12.5592 4.80027 12.625 4.95924 12.625 5.125V10.125H15.125C15.2487 10.1249 15.3696 10.1615 15.4725 10.2302C15.5754 10.2988 15.6555 10.3965 15.7029 10.5108C15.7502 10.625 15.7626 10.7508 15.7385 10.8721C15.7143 10.9934 15.6547 11.1048 15.5672 11.1922L12.4422 14.3172C12.3841 14.3753 12.3152 14.4214 12.2393 14.4529C12.1635 14.4843 12.0821 14.5005 12 14.5005C11.9179 14.5005 11.8365 14.4843 11.7607 14.4529C11.6848 14.4214 11.6159 14.3753 11.5578 14.3172L8.43281 11.1922ZM18.875 13.25C18.7092 13.25 18.5503 13.3158 18.4331 13.4331C18.3158 13.5503 18.25 13.7092 18.25 13.875V18.25H5.75V13.875C5.75 13.7092 5.68415 13.5503 5.56694 13.4331C5.44973 13.3158 5.29076 13.25 5.125 13.25C4.95924 13.25 4.80027 13.3158 4.68306 13.4331C4.56585 13.5503 4.5 13.7092 4.5 13.875V18.25C4.5 18.5815 4.6317 18.8995 4.86612 19.1339C5.10054 19.3683 5.41848 19.5 5.75 19.5H18.25C18.5815 19.5 18.8995 19.3683 19.1339 19.1339C19.3683 18.8995 19.5 18.5815 19.5 18.25V13.875C19.5 13.7092 19.4342 13.5503 19.3169 13.4331C19.1997 13.3158 19.0408 13.25 18.875 13.25Z" fill="#373389"/>
</svg>
