<svg width="246" height="90" viewBox="0 0 246 90" fill="none" xmlns="http://www.w3.org/2000/svg">
<g filter="url(#filter0_d_1959_19233)">
<path d="M187.049 12.4812C189.311 10.5063 192.689 10.5063 194.951 12.4812L207 23H175L187.049 12.4812Z" fill="white"/>
<rect x="15" y="23" width="216" height="48" rx="6" fill="white"/>
<rect width="216" height="32" transform="translate(15 31)" fill="#F6F8F9"/>
<path d="M39.704 41.848C40.92 41.848 41.9707 42.0773 42.856 42.536C43.752 42.984 44.4347 43.6293 44.904 44.472C45.384 45.3147 45.624 46.3067 45.624 47.448C45.624 48.5893 45.384 49.5813 44.904 50.424C44.4347 51.256 43.752 51.896 42.856 52.344C41.9707 52.7813 40.92 53 39.704 53H36.232V41.848H39.704ZM39.704 51.8C41.144 51.8 42.2427 51.4213 43 50.664C43.7573 49.896 44.136 48.824 44.136 47.448C44.136 46.0613 43.752 44.9787 42.984 44.2C42.2267 43.4213 41.1333 43.032 39.704 43.032H37.688V51.8H39.704ZM47.0005 48.584C47.0005 47.688 47.1818 46.904 47.5445 46.232C47.9072 45.5493 48.4032 45.0213 49.0325 44.648C49.6725 44.2747 50.3818 44.088 51.1605 44.088C51.9285 44.088 52.5952 44.2533 53.1605 44.584C53.7258 44.9147 54.1472 45.3307 54.4245 45.832V44.232H55.8965V53H54.4245V51.368C54.1365 51.88 53.7045 52.3067 53.1285 52.648C52.5632 52.9787 51.9018 53.144 51.1445 53.144C50.3658 53.144 49.6618 52.952 49.0325 52.568C48.4032 52.184 47.9072 51.6453 47.5445 50.952C47.1818 50.2587 47.0005 49.4693 47.0005 48.584ZM54.4245 48.6C54.4245 47.9387 54.2912 47.3627 54.0245 46.872C53.7578 46.3813 53.3952 46.008 52.9365 45.752C52.4885 45.4853 51.9925 45.352 51.4485 45.352C50.9045 45.352 50.4085 45.48 49.9605 45.736C49.5125 45.992 49.1552 46.3653 48.8885 46.856C48.6218 47.3467 48.4885 47.9227 48.4885 48.584C48.4885 49.256 48.6218 49.8427 48.8885 50.344C49.1552 50.8347 49.5125 51.2133 49.9605 51.48C50.4085 51.736 50.9045 51.864 51.4485 51.864C51.9925 51.864 52.4885 51.736 52.9365 51.48C53.3952 51.2133 53.7578 50.8347 54.0245 50.344C54.2912 49.8427 54.4245 49.2613 54.4245 48.6ZM60.133 45.432V50.6C60.133 51.0267 60.2237 51.3307 60.405 51.512C60.5863 51.6827 60.901 51.768 61.349 51.768H62.421V53H61.109C60.2983 53 59.6903 52.8133 59.285 52.44C58.8797 52.0667 58.677 51.4533 58.677 50.6V45.432H57.541V44.232H58.677V42.024H60.133V44.232H62.421V45.432H60.133ZM72.1851 48.28C72.1851 48.5573 72.1691 48.8507 72.1371 49.16H65.1291C65.1825 50.024 65.4758 50.7013 66.0091 51.192C66.5531 51.672 67.2091 51.912 67.9771 51.912C68.6065 51.912 69.1291 51.768 69.5451 51.48C69.9718 51.1813 70.2705 50.7867 70.4411 50.296H72.0091C71.7745 51.1387 71.3051 51.8267 70.6011 52.36C69.8971 52.8827 69.0225 53.144 67.9771 53.144C67.1451 53.144 66.3985 52.9573 65.7371 52.584C65.0865 52.2107 64.5745 51.6827 64.2011 51C63.8278 50.3067 63.6411 49.5067 63.6411 48.6C63.6411 47.6933 63.8225 46.8987 64.1851 46.216C64.5478 45.5333 65.0545 45.0107 65.7051 44.648C66.3665 44.2747 67.1238 44.088 67.9771 44.088C68.8091 44.088 69.5451 44.2693 70.1851 44.632C70.8251 44.9947 71.3158 45.496 71.6571 46.136C72.0091 46.7653 72.1851 47.48 72.1851 48.28ZM70.6811 47.976C70.6811 47.4213 70.5585 46.9467 70.3131 46.552C70.0678 46.1467 69.7318 45.8427 69.3051 45.64C68.8891 45.4267 68.4251 45.32 67.9131 45.32C67.1771 45.32 66.5478 45.5547 66.0251 46.024C65.5131 46.4933 65.2198 47.144 65.1451 47.976H70.6811Z" fill="#6200EE"/>
</g>
<defs>
<filter id="filter0_d_1959_19233" x="0" y="0" width="246" height="90" filterUnits="userSpaceOnUse" color-interpolation-filters="sRGB">
<feFlood flood-opacity="0" result="BackgroundImageFix"/>
<feColorMatrix in="SourceAlpha" type="matrix" values="0 0 0 0 0 0 0 0 0 0 0 0 0 0 0 0 0 0 127 0" result="hardAlpha"/>
<feOffset dy="4"/>
<feGaussianBlur stdDeviation="7.5"/>
<feComposite in2="hardAlpha" operator="out"/>
<feColorMatrix type="matrix" values="0 0 0 0 0 0 0 0 0 0 0 0 0 0 0 0 0 0 0.2 0"/>
<feBlend mode="normal" in2="BackgroundImageFix" result="effect1_dropShadow_1959_19233"/>
<feBlend mode="normal" in="SourceGraphic" in2="effect1_dropShadow_1959_19233" result="shape"/>
</filter>
</defs>
</svg>
