<svg width="20" height="20" viewBox="0 0 20 20" fill="none" xmlns="http://www.w3.org/2000/svg">
<g id="Gear">
<path id="Vector" d="M16.875 10.1681C16.8781 10.0556 16.8781 9.94305 16.875 9.83055L18.0406 8.3743C18.1017 8.29784 18.144 8.2081 18.1641 8.11229C18.1842 8.01649 18.1815 7.91731 18.1562 7.82274C17.9648 7.10458 17.679 6.41497 17.3062 5.77196C17.2574 5.68783 17.1896 5.61627 17.1082 5.56297C17.0268 5.50967 16.9341 5.47609 16.8375 5.46493L14.9844 5.25868C14.9073 5.17743 14.8291 5.0993 14.75 5.0243L14.5312 3.16649C14.52 3.06978 14.4863 2.97704 14.4328 2.89566C14.3794 2.81427 14.3077 2.7465 14.2234 2.69774C13.5804 2.32528 12.8908 2.03997 12.1726 1.8493C12.0781 1.82404 11.9789 1.82134 11.8831 1.84142C11.7873 1.8615 11.6975 1.90381 11.6211 1.96493L10.1687 3.1243C10.0562 3.1243 9.94373 3.1243 9.83123 3.1243L8.37498 1.96102C8.29852 1.8999 8.20877 1.8576 8.11297 1.83752C8.01716 1.81743 7.91798 1.82013 7.82341 1.8454C7.10525 2.03682 6.41564 2.32265 5.77263 2.6954C5.6885 2.74425 5.61694 2.81206 5.56364 2.89344C5.51034 2.97481 5.47677 3.06751 5.4656 3.16415L5.25935 5.0204C5.1781 5.098 5.09998 5.17613 5.02498 5.25477L3.16716 5.46805C3.07045 5.47931 2.97771 5.51299 2.89633 5.56644C2.81494 5.61988 2.74717 5.69159 2.69841 5.77587C2.32603 6.41896 2.04047 7.10855 1.84919 7.82665C1.82403 7.92128 1.82146 8.02049 1.84168 8.1163C1.8619 8.2121 1.90435 8.30182 1.9656 8.37821L3.12497 9.83055C3.12497 9.94305 3.12497 10.0556 3.12497 10.1681L1.96169 11.6243C1.90057 11.7008 1.85827 11.7905 1.83819 11.8863C1.8181 11.9821 1.8208 12.0813 1.84607 12.1759C2.0375 12.894 2.32332 13.5836 2.69607 14.2266C2.74492 14.3108 2.81273 14.3823 2.89411 14.4356C2.97548 14.4889 3.06818 14.5225 3.16482 14.5337L5.01794 14.7399C5.09555 14.8212 5.17367 14.8993 5.25232 14.9743L5.46872 16.8321C5.47998 16.9288 5.51367 17.0216 5.56711 17.103C5.62055 17.1843 5.69227 17.2521 5.77654 17.3009C6.41963 17.6733 7.10923 17.9588 7.82732 18.1501C7.92195 18.1752 8.02116 18.1778 8.11697 18.1576C8.21277 18.1374 8.30249 18.0949 8.37888 18.0337L9.83123 16.8743C9.94373 16.8774 10.0562 16.8774 10.1687 16.8743L11.625 18.0399C11.7014 18.101 11.7912 18.1434 11.887 18.1634C11.9828 18.1835 12.082 18.1808 12.1765 18.1556C12.8948 17.9645 13.5845 17.6786 14.2273 17.3056C14.3114 17.2567 14.383 17.1889 14.4363 17.1075C14.4896 17.0261 14.5232 16.9334 14.5344 16.8368L14.7406 14.9837C14.8219 14.9066 14.9 14.8285 14.975 14.7493L16.8328 14.5306C16.9295 14.5193 17.0222 14.4856 17.1036 14.4322C17.185 14.3787 17.2528 14.307 17.3015 14.2227C17.6739 13.5796 17.9595 12.8901 18.1508 12.172C18.1759 12.0773 18.1785 11.9781 18.1583 11.8823C18.1381 11.7865 18.0956 11.6968 18.0344 11.6204L16.875 10.1681ZM9.99998 13.1243C9.38191 13.1243 8.77772 12.941 8.26382 12.5976C7.74991 12.2543 7.34938 11.7662 7.11285 11.1952C6.87633 10.6242 6.81444 9.99584 6.93502 9.38965C7.0556 8.78346 7.35323 8.22663 7.79027 7.7896C8.22731 7.35256 8.78413 7.05493 9.39032 6.93435C9.99651 6.81377 10.6248 6.87566 11.1959 7.11218C11.7669 7.3487 12.2549 7.74924 12.5983 8.26315C12.9417 8.77705 13.125 9.38124 13.125 9.9993C13.125 10.8281 12.7957 11.623 12.2097 12.209C11.6236 12.7951 10.8288 13.1243 9.99998 13.1243Z" fill="#6A7781"/>
</g>
</svg>
