<?xml version="1.0" encoding="utf-8"?>
<!-- Generator: Adobe Illustrator 26.1.0, SVG Export Plug-In . SVG Version: 6.00 Build 0)  -->
<svg version="1.1" id="Capa_1" xmlns="http://www.w3.org/2000/svg" xmlns:xlink="http://www.w3.org/1999/xlink" x="0px" y="0px"
	 viewBox="0 0 24 24" style="enable-background:new 0 0 24 24;" xml:space="preserve">
<style type="text/css">
	.st0{fill:none;stroke:#171717;stroke-width:1.3;stroke-linecap:round;stroke-linejoin:round;}
	.st1{fill:none;stroke:#171717;stroke-width:1.3;stroke-linecap:square;stroke-linejoin:round;}
</style>
<path class="st0" d="M12,22c5.5,0,10-4.5,10-10c0-5.5-4.5-10-10-10C6.5,2,2,6.5,2,12C2,17.5,6.5,22,12,22z"/>
<path class="st1" d="M14,3c2.7,6.2,2.7,12.3,0,18.5"/>
<path class="st0" d="M3,16v-1c5.8,2,12.2,2,18,0v1"/>
<path class="st0" d="M3,9C8.8,7,15.2,7,21,9"/>
<path class="st1" d="M10,21.5C7.3,15.3,7.3,9.2,10,3"/>
</svg>
