<svg width="20" height="21" viewBox="0 0 20 21" fill="none" xmlns="http://www.w3.org/2000/svg">
<g id="Check">
<path id="Vector" d="M18.1633 6.78815L8.16328 16.7882C8.07618 16.8756 7.97269 16.9449 7.85874 16.9922C7.74478 17.0395 7.62261 17.0639 7.49922 17.0639C7.37583 17.0639 7.25366 17.0395 7.1397 16.9922C7.02575 16.9449 6.92225 16.8756 6.83516 16.7882L2.46016 12.4132C2.37295 12.3259 2.30378 12.2224 2.25658 12.1085C2.20938 11.9945 2.18509 11.8724 2.18509 11.7491C2.18509 11.6258 2.20938 11.5036 2.25658 11.3897C2.30378 11.2758 2.37295 11.1722 2.46016 11.085C2.54736 10.9978 2.65089 10.9286 2.76483 10.8814C2.87877 10.8343 3.00089 10.81 3.12422 10.81C3.24755 10.81 3.36967 10.8343 3.48361 10.8814C3.59755 10.9286 3.70108 10.9978 3.78828 11.085L7.5 14.7967L16.8367 5.46159C17.0128 5.28547 17.2517 5.18652 17.5008 5.18652C17.7499 5.18652 17.9887 5.28547 18.1648 5.46159C18.341 5.63771 18.4399 5.87658 18.4399 6.12565C18.4399 6.37472 18.341 6.61359 18.1648 6.78971L18.1633 6.78815Z" fill="#0E5D33"/>
</g>
</svg>
