<svg width="24" height="24" viewBox="0 0 24 24" fill="none" xmlns="http://www.w3.org/2000/svg">
<path d="M19.5 11.027V18.2496C19.5 18.5812 19.3683 18.8991 19.1339 19.1335C18.8995 19.368 18.5815 19.4996 18.25 19.4996H15.125C14.7935 19.4996 14.4755 19.368 14.2411 19.1335C14.0067 18.8991 13.875 18.5812 13.875 18.2496V15.1246C13.875 14.9589 13.8092 14.7999 13.6919 14.6827C13.5747 14.5655 13.4158 14.4996 13.25 14.4996H10.75C10.5842 14.4996 10.4253 14.5655 10.3081 14.6827C10.1908 14.7999 10.125 14.9589 10.125 15.1246V18.2496C10.125 18.5812 9.9933 18.8991 9.75888 19.1335C9.52446 19.368 9.20652 19.4996 8.875 19.4996H5.75C5.41848 19.4996 5.10054 19.368 4.86612 19.1335C4.6317 18.8991 4.5 18.5812 4.5 18.2496V11.027C4.49997 10.854 4.53586 10.6829 4.60538 10.5245C4.67491 10.366 4.77656 10.2238 4.90391 10.1067L11.1539 4.2098L11.1625 4.20121C11.3926 3.99194 11.6925 3.87598 12.0035 3.87598C12.3146 3.87598 12.6144 3.99194 12.8445 4.20121C12.8472 4.20427 12.8501 4.20714 12.8531 4.2098L19.1031 10.1067C19.2292 10.2244 19.3295 10.3669 19.3978 10.5253C19.4661 10.6837 19.5009 10.8545 19.5 11.027Z" fill="#111012"/>
</svg>
