<?xml version="1.0" encoding="utf-8"?>
<svg version="1.1" id="Capa_1" xmlns="http://www.w3.org/2000/svg" xmlns:xlink="http://www.w3.org/1999/xlink" x="0px" y="0px"
	 viewBox="0 0 20 20" style="enable-background:new 0 0 20 20;" xml:space="preserve">
<style type="text/css">
	.st0{fill:#6A7781;}
</style>
<path class="st0" d="M10,0C8,0,6.1,0.6,4.4,1.7C2.8,2.8,1.5,4.3,0.8,6.2C0,8-0.2,10,0.2,12c0.4,1.9,1.3,3.7,2.7,5.1
	c1.4,1.4,3.2,2.4,5.1,2.7c1.9,0.4,4,0.2,5.8-0.6c1.8-0.8,3.4-2,4.5-3.7C19.4,13.9,20,12,20,10c0-2.7-1.1-5.2-2.9-7.1
	C15.2,1.1,12.7,0,10,0z M13.8,10.8h-3.1v3.1c0,0.2-0.1,0.4-0.2,0.5c-0.1,0.1-0.3,0.2-0.5,0.2s-0.4-0.1-0.5-0.2
	c-0.1-0.1-0.2-0.3-0.2-0.5v-3.1H6.2c-0.2,0-0.4-0.1-0.5-0.2c-0.1-0.1-0.2-0.3-0.2-0.5s0.1-0.4,0.2-0.5c0.1-0.1,0.3-0.2,0.5-0.2h3.1
	V6.2c0-0.2,0.1-0.4,0.2-0.5C9.6,5.5,9.8,5.4,10,5.4s0.4,0.1,0.5,0.2c0.1,0.1,0.2,0.3,0.2,0.5v3.1h3.1c0.2,0,0.4,0.1,0.5,0.2
	c0.1,0.1,0.2,0.3,0.2,0.5s-0.1,0.4-0.2,0.5C14.2,10.7,14.1,10.8,13.8,10.8z"/>
</svg>
