<svg width="24" height="24" viewBox="0 0 24 24" fill="none" xmlns="http://www.w3.org/2000/svg">
<path d="M12 3.875C10.393 3.875 8.82214 4.35152 7.486 5.24431C6.14985 6.1371 5.10844 7.40605 4.49348 8.8907C3.87852 10.3753 3.71762 12.009 4.03112 13.5851C4.34463 15.1612 5.11846 16.6089 6.25476 17.7452C7.39106 18.8815 8.8388 19.6554 10.4149 19.9689C11.991 20.2824 13.6247 20.1215 15.1093 19.5065C16.594 18.8916 17.8629 17.8502 18.7557 16.514C19.6485 15.1779 20.125 13.607 20.125 12C20.1223 9.84594 19.2654 7.78088 17.7423 6.25773C16.2191 4.73457 14.1541 3.87769 12 3.875ZM15.125 12.625H12.625V15.125C12.625 15.2908 12.5592 15.4497 12.4419 15.5669C12.3247 15.6842 12.1658 15.75 12 15.75C11.8342 15.75 11.6753 15.6842 11.5581 15.5669C11.4409 15.4497 11.375 15.2908 11.375 15.125V12.625H8.875C8.70924 12.625 8.55027 12.5592 8.43306 12.4419C8.31585 12.3247 8.25 12.1658 8.25 12C8.25 11.8342 8.31585 11.6753 8.43306 11.5581C8.55027 11.4408 8.70924 11.375 8.875 11.375H11.375V8.875C11.375 8.70924 11.4409 8.55027 11.5581 8.43306C11.6753 8.31585 11.8342 8.25 12 8.25C12.1658 8.25 12.3247 8.31585 12.4419 8.43306C12.5592 8.55027 12.625 8.70924 12.625 8.875V11.375H15.125C15.2908 11.375 15.4497 11.4408 15.5669 11.5581C15.6842 11.6753 15.75 11.8342 15.75 12C15.75 12.1658 15.6842 12.3247 15.5669 12.4419C15.4497 12.5592 15.2908 12.625 15.125 12.625Z" fill="#6A7781"/>
</svg>
