<svg width="18" height="10" viewBox="0 0 18 10" fill="none" xmlns="http://www.w3.org/2000/svg">
<g id="Layer_1" clip-path="url(#clip0_1740_27213)">
<path id="Vector" d="M8.9756 9.40472C11.5414 7.20547 15.1457 5.06732 17.125 4.29758C16.8196 4.10209 16.3431 3.82108 15.8055 3.51562C13.2519 4.35867 10.2707 6.22803 7.60718 8.34175C8.05925 8.68386 8.53575 9.03818 8.9756 9.40472Z" fill="#E31837"/>
<path id="Vector_2" d="M7.80266 3.43063C7.4239 3.24736 7.00848 3.0763 6.69081 2.92969C5.72559 3.40619 4.46713 4.12706 2.87878 5.26333C3.22089 5.4466 3.58743 5.66653 3.97841 5.88645C5.20021 4.98232 6.43424 4.12706 7.80266 3.43063Z" fill="#012169"/>
<path id="Vector_3" d="M10.0874 2.37942C9.62309 2.12284 8.01031 1.52416 6.89846 1.26758C6.56858 1.38976 6.10429 1.57303 5.78662 1.70743C6.18982 1.81739 7.69264 2.22059 8.97553 2.86814C9.30542 2.70931 9.7697 2.51382 10.0874 2.37942Z" fill="#E31837"/>
<path id="Vector_4" d="M4.62594 2.2207C3.19643 2.88048 1.69361 3.78461 0.875 4.30999C1.16823 4.44439 1.46147 4.55435 1.86466 4.74984C3.67293 3.52803 5.09023 2.78273 5.65226 2.53837C5.24906 2.39176 4.8703 2.29401 4.62594 2.2207Z" fill="#012169"/>
<path id="Vector_5" d="M11.1625 2.00078C11.4924 1.89082 11.8712 1.79307 12.2011 1.69533C11.2481 1.29213 10.0507 0.8645 8.9755 0.595703C8.80445 0.644575 8.29129 0.778974 7.93697 0.888936C8.30351 0.998899 9.5131 1.27991 11.1625 2.00078ZM5.13904 6.59476C5.53002 6.82691 5.94543 7.14458 6.34862 7.41337C9.02438 5.3363 11.6635 3.73574 14.5592 2.83161C14.156 2.6239 13.8016 2.44063 13.3496 2.2207C11.6146 2.66055 8.64562 3.8457 5.13904 6.59476Z" fill="#E31837"/>
</g>
<defs>
<clipPath id="clip0_1740_27213">
<rect width="16.25" height="8.80921" fill="white" transform="translate(0.875 0.595703)"/>
</clipPath>
</defs>
</svg>
