<svg width="68" height="24" viewBox="0 0 68 24" fill="none" xmlns="http://www.w3.org/2000/svg">
<path d="M8.07488 23.9902C6.06799 23.9105 4.42604 23.3615 3.14218 22.3418C2.89716 22.147 2.31331 21.5629 2.11743 21.3165C1.5968 20.662 1.24285 20.025 1.00676 19.3183C0.280292 17.1428 0.654179 14.288 2.07619 11.1549C3.29373 8.4726 5.17244 5.81229 8.45015 2.12777C8.93297 1.5856 10.3708 0 10.3801 0C10.3835 0 10.3052 0.135712 10.2065 0.300974C9.35428 1.72819 8.62506 3.40931 8.22781 4.8647C7.58966 7.19999 7.66663 9.20407 8.45324 10.7581C8.99586 11.8287 9.92611 12.756 10.9722 13.2686C12.8035 14.1657 15.4846 14.2399 18.7589 13.4857C18.9843 13.4335 30.1549 10.4688 43.5825 6.8973C57.0102 3.32547 67.9983 0.40542 68 0.407824C68.0037 0.410922 36.8037 13.7589 20.6073 20.6837C18.0424 21.78 17.3564 22.0569 16.1506 22.4802C13.0681 23.5625 10.3069 24.0789 8.07488 23.9902Z" fill="#111012"/>
</svg>
