<svg width="24" height="24" viewBox="0 0 24 24" fill="none" xmlns="http://www.w3.org/2000/svg">
<path d="M11.3273 15.5105C11.3747 15.6246 11.3872 15.7503 11.3631 15.8716C11.3391 15.9928 11.2796 16.1042 11.1922 16.1917L8.69219 18.6917C8.63415 18.7498 8.56522 18.7959 8.48934 18.8274C8.41347 18.8588 8.33214 18.875 8.25 18.875C8.16787 18.875 8.08654 18.8588 8.01067 18.8274C7.93479 18.7959 7.86586 18.7498 7.80782 18.6917L5.30782 16.1917C5.22031 16.1043 5.1607 15.9929 5.13655 15.8716C5.11239 15.7503 5.12477 15.6245 5.17211 15.5103C5.21946 15.396 5.29964 15.2984 5.40252 15.2297C5.50539 15.161 5.62632 15.1244 5.75 15.1245H7.625V5.74952C7.625 5.58375 7.69085 5.42478 7.80806 5.30757C7.92527 5.19036 8.08424 5.12452 8.25 5.12452C8.41576 5.12452 8.57474 5.19036 8.69195 5.30757C8.80916 5.42478 8.875 5.58375 8.875 5.74952V15.1245H10.75C10.8736 15.1245 10.9944 15.1612 11.0972 15.2299C11.2 15.2986 11.2801 15.3962 11.3273 15.5105ZM18.6922 7.80733L16.1922 5.30733C16.1341 5.24922 16.0652 5.20312 15.9893 5.17167C15.9135 5.14021 15.8321 5.12402 15.75 5.12402C15.6679 5.12402 15.5865 5.14021 15.5107 5.17167C15.4348 5.20312 15.3659 5.24922 15.3078 5.30733L12.8078 7.80733C12.7203 7.89474 12.6607 8.00615 12.6365 8.12745C12.6124 8.24875 12.6248 8.37449 12.6721 8.48876C12.7195 8.60302 12.7996 8.70067 12.9025 8.76934C13.0054 8.83801 13.1263 8.87461 13.25 8.87452H15.125V18.2495C15.125 18.4153 15.1909 18.5742 15.3081 18.6915C15.4253 18.8087 15.5842 18.8745 15.75 18.8745C15.9158 18.8745 16.0747 18.8087 16.1919 18.6915C16.3092 18.5742 16.375 18.4153 16.375 18.2495V8.87452H18.25C18.3737 8.87461 18.4946 8.83801 18.5975 8.76934C18.7004 8.70067 18.7805 8.60302 18.8279 8.48876C18.8752 8.37449 18.8876 8.24875 18.8635 8.12745C18.8393 8.00615 18.7797 7.89474 18.6922 7.80733Z" fill="#111012"/>
</svg>
