<svg width="24" height="24" viewBox="0 0 24 24" fill="none" xmlns="http://www.w3.org/2000/svg">
<path d="M12.625 8.25012V11.6462L15.4469 13.3392C15.589 13.4245 15.6914 13.5629 15.7316 13.7238C15.7717 13.8846 15.7463 14.0549 15.6609 14.197C15.5756 14.3391 15.4372 14.4415 15.2764 14.4817C15.1155 14.5218 14.9453 14.4964 14.8031 14.4111L11.6781 12.5361C11.5856 12.4805 11.5091 12.4019 11.456 12.308C11.4029 12.2141 11.375 12.108 11.375 12.0001V8.25012C11.375 8.08436 11.4409 7.92539 11.5581 7.80818C11.6753 7.69097 11.8342 7.62512 12 7.62512C12.1658 7.62512 12.3247 7.69097 12.4419 7.80818C12.5592 7.92539 12.625 8.08436 12.625 8.25012ZM19.7391 6.42277C19.6249 6.3754 19.4992 6.36296 19.3779 6.38701C19.2567 6.41107 19.1453 6.47055 19.0578 6.55793L18.0938 7.52434C17.8414 7.25012 17.5813 6.97746 17.3047 6.69699C16.2624 5.65458 14.936 4.94243 13.4913 4.64954C12.0465 4.35664 10.5475 4.49599 9.18156 5.05017C7.81557 5.60435 6.64319 6.54878 5.81089 7.76546C4.9786 8.98214 4.5233 10.4171 4.50189 11.8911C4.48048 13.365 4.89391 14.8126 5.69052 16.053C6.48713 17.2933 7.63159 18.2714 8.9809 18.865C10.3302 19.4586 11.8245 19.6415 13.2772 19.3906C14.7298 19.1398 16.0763 18.4665 17.1484 17.4548C17.2082 17.3984 17.2562 17.3307 17.2897 17.2558C17.3233 17.1808 17.3418 17.0999 17.3441 17.0178C17.3464 16.9357 17.3325 16.8539 17.3033 16.7771C17.274 16.7004 17.2299 16.6301 17.1734 16.5704C17.117 16.5107 17.0494 16.4627 16.9744 16.4291C16.8994 16.3956 16.8186 16.3771 16.7364 16.3748C16.6543 16.3724 16.5725 16.3863 16.4958 16.4156C16.419 16.4449 16.3488 16.489 16.2891 16.5454C15.3957 17.3884 14.2737 17.9494 13.0634 18.1585C11.853 18.3675 10.6079 18.2152 9.48351 17.7207C8.35916 17.2262 7.40545 16.4114 6.74151 15.378C6.07757 14.3446 5.73284 13.1385 5.75039 11.9103C5.76793 10.6822 6.14698 9.48641 6.84017 8.47241C7.53337 7.45842 8.50997 6.67116 9.64799 6.20897C10.786 5.74679 12.035 5.63018 13.2389 5.87371C14.4428 6.11723 15.5483 6.7101 16.4172 7.57824C16.6938 7.85793 16.9539 8.13293 17.207 8.40871L15.9328 9.68293C15.8453 9.77034 15.7857 9.88175 15.7615 10.0031C15.7374 10.1244 15.7498 10.2501 15.7971 10.3644C15.8445 10.4786 15.9246 10.5763 16.0275 10.6449C16.1304 10.7136 16.2513 10.7502 16.375 10.7501H19.5C19.6658 10.7501 19.8247 10.6843 19.9419 10.5671C20.0592 10.4498 20.125 10.2909 20.125 10.1251V7.00012C20.125 6.87651 20.0883 6.75568 20.0196 6.65291C19.9509 6.55014 19.8533 6.47006 19.7391 6.42277Z" fill="#876401"/>
</svg>
