<svg width="107" height="32" viewBox="0 0 107 32" fill="none" xmlns="http://www.w3.org/2000/svg">
<rect y="0.5" width="107" height="31" rx="6" fill="#FFCA0F" fill-opacity="0.05"/>
<path d="M16.625 10.7501V14.1462L19.4469 15.8392C19.589 15.9245 19.6914 16.0629 19.7316 16.2238C19.7717 16.3846 19.7463 16.5549 19.6609 16.697C19.5756 16.8391 19.4372 16.9415 19.2764 16.9817C19.1155 17.0218 18.9453 16.9964 18.8031 16.9111L15.6781 15.0361C15.5856 14.9805 15.5091 14.9019 15.456 14.808C15.4029 14.7141 15.375 14.608 15.375 14.5001V10.7501C15.375 10.5844 15.4409 10.4254 15.5581 10.3082C15.6753 10.191 15.8342 10.1251 16 10.1251C16.1658 10.1251 16.3247 10.191 16.4419 10.3082C16.5592 10.4254 16.625 10.5844 16.625 10.7501ZM23.7391 8.92277C23.6249 8.8754 23.4992 8.86296 23.3779 8.88701C23.2567 8.91107 23.1453 8.97055 23.0578 9.05793L22.0938 10.0243C21.8414 9.75012 21.5813 9.47746 21.3047 9.19699C20.2624 8.15458 18.936 7.44243 17.4913 7.14954C16.0465 6.85664 14.5475 6.99599 13.1816 7.55017C11.8156 8.10435 10.6432 9.04878 9.81089 10.2655C8.9786 11.4821 8.5233 12.9171 8.50189 14.3911C8.48048 15.865 8.89391 17.3126 9.69052 18.553C10.4871 19.7933 11.6316 20.7714 12.9809 21.365C14.3302 21.9586 15.8245 22.1415 17.2772 21.8906C18.7298 21.6398 20.0763 20.9665 21.1484 19.9548C21.2082 19.8984 21.2562 19.8307 21.2897 19.7558C21.3233 19.6808 21.3418 19.5999 21.3441 19.5178C21.3464 19.4357 21.3325 19.3539 21.3033 19.2771C21.274 19.2004 21.2299 19.1301 21.1734 19.0704C21.117 19.0107 21.0494 18.9627 20.9744 18.9291C20.8994 18.8956 20.8186 18.8771 20.7364 18.8748C20.6543 18.8724 20.5725 18.8863 20.4958 18.9156C20.419 18.9449 20.3488 18.989 20.2891 19.0454C19.3957 19.8884 18.2737 20.4494 17.0634 20.6585C15.853 20.8675 14.6079 20.7152 13.4835 20.2207C12.3592 19.7262 11.4054 18.9114 10.7415 17.878C10.0776 16.8446 9.73284 15.6385 9.75039 14.4103C9.76793 13.1822 10.147 11.9864 10.8402 10.9724C11.5334 9.95842 12.51 9.17116 13.648 8.70897C14.786 8.24679 16.035 8.13018 17.2389 8.37371C18.4428 8.61723 19.5483 9.2101 20.4172 10.0782C20.6938 10.3579 20.9539 10.6329 21.207 10.9087L19.9328 12.1829C19.8453 12.2703 19.7857 12.3817 19.7615 12.5031C19.7374 12.6244 19.7498 12.7501 19.7971 12.8644C19.8445 12.9786 19.9246 13.0763 20.0275 13.1449C20.1304 13.2136 20.2513 13.2502 20.375 13.2501H23.5C23.6658 13.2501 23.8247 13.1843 23.9419 13.0671C24.0592 12.9498 24.125 12.7909 24.125 12.6251V9.50012C24.125 9.37651 24.0883 9.25568 24.0196 9.15291C23.9509 9.05014 23.8533 8.97006 23.7391 8.92277Z" fill="#876401"/>
<path d="M41.248 12.788C41.248 13.3853 41.104 13.9453 40.816 14.468C40.5387 14.9907 40.096 15.412 39.488 15.732C38.8907 16.052 38.1333 16.212 37.216 16.212H35.344V20.5H33.104V9.332H37.216C38.08 9.332 38.816 9.48133 39.424 9.78C40.032 10.0787 40.4853 10.4893 40.784 11.012C41.0933 11.5347 41.248 12.1267 41.248 12.788ZM37.12 14.404C37.7387 14.404 38.1973 14.2653 38.496 13.988C38.7947 13.7 38.944 13.3 38.944 12.788C38.944 11.7 38.336 11.156 37.12 11.156H35.344V14.404H37.12ZM51.0784 15.876C51.0784 16.196 51.057 16.484 51.0144 16.74H44.5344C44.5877 17.38 44.8117 17.8813 45.2064 18.244C45.601 18.6067 46.0864 18.788 46.6624 18.788C47.4944 18.788 48.0864 18.4307 48.4384 17.716H50.8544C50.5984 18.5693 50.1077 19.2733 49.3824 19.828C48.657 20.372 47.7664 20.644 46.7104 20.644C45.857 20.644 45.089 20.4573 44.4064 20.084C43.7344 19.7 43.2064 19.1613 42.8224 18.468C42.449 17.7747 42.2624 16.9747 42.2624 16.068C42.2624 15.1507 42.449 14.3453 42.8224 13.652C43.1957 12.9587 43.7184 12.4253 44.3904 12.052C45.0624 11.6787 45.8357 11.492 46.7104 11.492C47.553 11.492 48.305 11.6733 48.9664 12.036C49.6384 12.3987 50.1557 12.916 50.5184 13.588C50.8917 14.2493 51.0784 15.012 51.0784 15.876ZM48.7584 15.236C48.7477 14.66 48.5397 14.2013 48.1344 13.86C47.729 13.508 47.233 13.332 46.6464 13.332C46.0917 13.332 45.6224 13.5027 45.2384 13.844C44.865 14.1747 44.6357 14.6387 44.5504 15.236H48.7584ZM57.6254 11.508C58.6814 11.508 59.5347 11.844 60.1854 12.516C60.836 13.1773 61.1614 14.1053 61.1614 15.3V20.5H58.9214V15.604C58.9214 14.9 58.7454 14.3613 58.3934 13.988C58.0414 13.604 57.5614 13.412 56.9534 13.412C56.3347 13.412 55.844 13.604 55.4814 13.988C55.1294 14.3613 54.9534 14.9 54.9534 15.604V20.5H52.7134V11.636H54.9534V12.74C55.252 12.356 55.6307 12.0573 56.0894 11.844C56.5587 11.62 57.0707 11.508 57.6254 11.508ZM62.7155 16.036C62.7155 15.14 62.8915 14.3453 63.2435 13.652C63.6062 12.9587 64.0968 12.4253 64.7155 12.052C65.3342 11.6787 66.0222 11.492 66.7795 11.492C67.3555 11.492 67.9048 11.62 68.4275 11.876C68.9502 12.1213 69.3662 12.452 69.6755 12.868V8.66H71.9475V20.5H69.6755V19.188C69.3982 19.6253 69.0088 19.9773 68.5075 20.244C68.0062 20.5107 67.4248 20.644 66.7635 20.644C66.0168 20.644 65.3342 20.452 64.7155 20.068C64.0968 19.684 63.6062 19.1453 63.2435 18.452C62.8915 17.748 62.7155 16.9427 62.7155 16.036ZM69.6915 16.068C69.6915 15.524 69.5848 15.06 69.3715 14.676C69.1582 14.2813 68.8702 13.9827 68.5075 13.78C68.1448 13.5667 67.7555 13.46 67.3395 13.46C66.9235 13.46 66.5395 13.5613 66.1875 13.764C65.8355 13.9667 65.5475 14.2653 65.3235 14.66C65.1102 15.044 65.0035 15.5027 65.0035 16.036C65.0035 16.5693 65.1102 17.0387 65.3235 17.444C65.5475 17.8387 65.8355 18.1427 66.1875 18.356C66.5502 18.5693 66.9342 18.676 67.3395 18.676C67.7555 18.676 68.1448 18.5747 68.5075 18.372C68.8702 18.1587 69.1582 17.86 69.3715 17.476C69.5848 17.0813 69.6915 16.612 69.6915 16.068ZM75.2713 10.58C74.8766 10.58 74.5459 10.4573 74.2793 10.212C74.0233 9.956 73.8953 9.64133 73.8953 9.268C73.8953 8.89467 74.0233 8.58533 74.2793 8.34C74.5459 8.084 74.8766 7.956 75.2713 7.956C75.6659 7.956 75.9913 8.084 76.2473 8.34C76.5139 8.58533 76.6473 8.89467 76.6473 9.268C76.6473 9.64133 76.5139 9.956 76.2473 10.212C75.9913 10.4573 75.6659 10.58 75.2713 10.58ZM76.3753 11.636V20.5H74.1353V11.636H76.3753ZM83.5004 11.508C84.5564 11.508 85.4097 11.844 86.0604 12.516C86.711 13.1773 87.0364 14.1053 87.0364 15.3V20.5H84.7964V15.604C84.7964 14.9 84.6204 14.3613 84.2684 13.988C83.9164 13.604 83.4364 13.412 82.8284 13.412C82.2097 13.412 81.719 13.604 81.3564 13.988C81.0044 14.3613 80.8284 14.9 80.8284 15.604V20.5H78.5884V11.636H80.8284V12.74C81.127 12.356 81.5057 12.0573 81.9644 11.844C82.4337 11.62 82.9457 11.508 83.5004 11.508ZM92.6385 11.492C93.2998 11.492 93.8812 11.6253 94.3825 11.892C94.8838 12.148 95.2785 12.484 95.5665 12.9V11.636H97.8225V20.564C97.8225 21.3853 97.6572 22.116 97.3265 22.756C96.9958 23.4067 96.4998 23.9187 95.8385 24.292C95.1772 24.676 94.3772 24.868 93.4385 24.868C92.1798 24.868 91.1452 24.5747 90.3345 23.988C89.5345 23.4013 89.0812 22.6013 88.9745 21.588H91.1985C91.3158 21.9933 91.5665 22.3133 91.9505 22.548C92.3452 22.7933 92.8198 22.916 93.3745 22.916C94.0252 22.916 94.5532 22.7187 94.9585 22.324C95.3638 21.94 95.5665 21.3533 95.5665 20.564V19.188C95.2785 19.604 94.8785 19.9507 94.3665 20.228C93.8652 20.5053 93.2892 20.644 92.6385 20.644C91.8918 20.644 91.2092 20.452 90.5905 20.068C89.9718 19.684 89.4812 19.1453 89.1185 18.452C88.7665 17.748 88.5905 16.9427 88.5905 16.036C88.5905 15.14 88.7665 14.3453 89.1185 13.652C89.4812 12.9587 89.9665 12.4253 90.5745 12.052C91.1932 11.6787 91.8812 11.492 92.6385 11.492ZM95.5665 16.068C95.5665 15.524 95.4598 15.06 95.2465 14.676C95.0332 14.2813 94.7452 13.9827 94.3825 13.78C94.0198 13.5667 93.6305 13.46 93.2145 13.46C92.7985 13.46 92.4145 13.5613 92.0625 13.764C91.7105 13.9667 91.4225 14.2653 91.1985 14.66C90.9852 15.044 90.8785 15.5027 90.8785 16.036C90.8785 16.5693 90.9852 17.0387 91.1985 17.444C91.4225 17.8387 91.7105 18.1427 92.0625 18.356C92.4252 18.5693 92.8092 18.676 93.2145 18.676C93.6305 18.676 94.0198 18.5747 94.3825 18.372C94.7452 18.1587 95.0332 17.86 95.2465 17.476C95.4598 17.0813 95.5665 16.612 95.5665 16.068Z" fill="#876401"/>
</svg>
