<svg width="16" height="16" viewBox="0 0 16 16" fill="none" xmlns="http://www.w3.org/2000/svg">
<path d="M16.5 7.99998C16.5 9.97198 15.7198 11.864 14.3398 13.268C12.9498 14.672 11.0701 15.474 9.1001 15.5H9C7.08 15.505 5.2401 14.772 3.8501 13.453C3.7901 13.397 3.73996 13.329 3.70996 13.254C3.67996 13.179 3.66016 13.098 3.66016 13.016C3.65016 12.934 3.6702 12.853 3.7002 12.776C3.7302 12.699 3.77008 12.629 3.83008 12.569C3.88008 12.51 3.94979 12.462 4.02979 12.428C4.09979 12.395 4.17977 12.376 4.25977 12.374C4.34977 12.372 4.43 12.385 4.5 12.415C4.58 12.444 4.64996 12.488 4.70996 12.545C5.59996 13.387 6.72994 13.948 7.93994 14.157C9.14994 14.366 10.39 14.213 11.52 13.718C12.64 13.223 13.5898 12.408 14.2598 11.375C14.9198 10.341 15.27 9.13499 15.25 7.90699C15.23 6.67899 14.8502 5.48297 14.1602 4.46897C13.4602 3.45497 12.4901 2.66797 11.3501 2.20597C10.2101 1.74497 8.95977 1.62799 7.75977 1.87199C6.54977 2.11599 5.45008 2.70897 4.58008 3.57697C4.57008 3.58397 4.57006 3.59096 4.56006 3.59696L3.74023 4.35099L5.06006 5.67896C5.15006 5.76596 5.21023 5.87797 5.24023 5.99897C5.26023 6.12097 5.24996 6.24799 5.20996 6.36299C5.15996 6.47799 5.08021 6.57597 4.97021 6.64497C4.87021 6.71397 4.74988 6.75098 4.62988 6.74998H0.879883C0.709883 6.74998 0.550176 6.68397 0.430176 6.56697C0.320176 6.44997 0.25 6.29098 0.25 6.12498V2.37498C0.25 2.25098 0.290098 2.12998 0.350098 2.02598C0.420098 1.92298 0.519883 1.84199 0.629883 1.79499C0.749883 1.74699 0.87 1.73397 1 1.75797C1.12 1.78197 1.22982 1.84197 1.31982 1.92997L2.8501 3.46897L3.70996 2.68797C4.75996 1.64197 6.0898 0.929984 7.5498 0.642984C8.9998 0.355984 10.5099 0.505991 11.8799 1.07499C13.2499 1.64299 14.4102 2.60398 15.2402 3.83698C16.0602 5.06898 16.5 6.51798 16.5 7.99998Z" fill="#4B5563"/>
</svg>
