<svg width="24" height="24" viewBox="0 0 24 24" fill="none" xmlns="http://www.w3.org/2000/svg">
<path d="M19.9422 19.058L16.0305 15.1471C17.1642 13.7859 17.7296 12.04 17.6089 10.2726C17.4883 8.50524 16.6909 6.85241 15.3826 5.65797C14.0744 4.46353 12.356 3.81944 10.5849 3.85969C8.81388 3.89994 7.12653 4.62143 5.87389 5.87407C4.62125 7.12671 3.89976 8.81406 3.85951 10.5851C3.81926 12.3561 4.46335 14.0745 5.65779 15.3828C6.85223 16.691 8.50506 17.4884 10.2724 17.6091C12.0398 17.7298 13.7857 17.1644 15.1469 16.0306L19.0578 19.9424C19.1159 20.0004 19.1848 20.0465 19.2607 20.0779C19.3366 20.1094 19.4179 20.1255 19.5 20.1255C19.5821 20.1255 19.6634 20.1094 19.7393 20.0779C19.8152 20.0465 19.8841 20.0004 19.9422 19.9424C20.0003 19.8843 20.0463 19.8154 20.0777 19.7395C20.1092 19.6636 20.1253 19.5823 20.1253 19.5002C20.1253 19.4181 20.1092 19.3367 20.0777 19.2609C20.0463 19.185 20.0003 19.1161 19.9422 19.058ZM5.125 10.7502C5.125 9.63766 5.4549 8.55012 6.07298 7.6251C6.69107 6.70007 7.56957 5.9791 8.59741 5.55336C9.62524 5.12761 10.7562 5.01622 11.8474 5.23326C12.9385 5.4503 13.9408 5.98603 14.7275 6.7727C15.5141 7.55937 16.0499 8.56165 16.2669 9.6528C16.484 10.7439 16.3726 11.8749 15.9468 12.9028C15.5211 13.9306 14.8001 14.8091 13.8751 15.4272C12.9501 16.0453 11.8625 16.3752 10.75 16.3752C9.25867 16.3735 7.82889 15.7804 6.77435 14.7258C5.71982 13.6713 5.12666 12.2415 5.125 10.7502Z" fill="#6A7781"/>
</svg>
