<svg width="24" height="24" viewBox="0 0 24 24" fill="none" xmlns="http://www.w3.org/2000/svg">
<path d="M19.9422 19.0575L16.0305 15.1466C17.1642 13.7854 17.7296 12.0395 17.6089 10.2721C17.4883 8.50475 16.6909 6.85192 15.3826 5.65748C14.0744 4.46304 12.356 3.81895 10.5849 3.8592C8.81388 3.89945 7.12653 4.62094 5.87389 5.87358C4.62125 7.12622 3.89976 8.81357 3.85951 10.5846C3.81926 12.3557 4.46334 14.074 5.65779 15.3823C6.85223 16.6906 8.50506 17.488 10.2724 17.6086C12.0398 17.7293 13.7857 17.1639 15.1469 16.0302L19.0578 19.9419C19.1159 19.9999 19.1848 20.046 19.2607 20.0774C19.3366 20.1089 19.4179 20.125 19.5 20.125C19.5821 20.125 19.6634 20.1089 19.7393 20.0774C19.8152 20.046 19.8841 19.9999 19.9422 19.9419C20.0003 19.8838 20.0463 19.8149 20.0777 19.739C20.1092 19.6631 20.1253 19.5818 20.1253 19.4997C20.1253 19.4176 20.1092 19.3363 20.0777 19.2604C20.0463 19.1845 20.0003 19.1156 19.9422 19.0575ZM5.125 10.7497C5.125 9.63717 5.4549 8.54963 6.07298 7.62461C6.69106 6.69958 7.56957 5.97861 8.5974 5.55287C9.62524 5.12712 10.7562 5.01573 11.8474 5.23277C12.9385 5.44981 13.9408 5.98554 14.7275 6.77221C15.5141 7.55888 16.0499 8.56116 16.2669 9.65231C16.484 10.7435 16.3726 11.8744 15.9468 12.9023C15.5211 13.9301 14.8001 14.8086 13.8751 15.4267C12.9501 16.0448 11.8625 16.3747 10.75 16.3747C9.25866 16.373 7.82888 15.7799 6.77435 14.7253C5.71981 13.6708 5.12665 12.241 5.125 10.7497Z" fill="#6A7781"/>
</svg>
