<svg width="24" height="24" viewBox="0 0 24 24" fill="none" xmlns="http://www.w3.org/2000/svg">
<path d="M20.1633 8.28815L10.1633 18.2882C10.0762 18.3756 9.97272 18.4449 9.85876 18.4922C9.74481 18.5395 9.62263 18.5639 9.49925 18.5639C9.37586 18.5639 9.25368 18.5395 9.13973 18.4922C9.02577 18.4449 8.92228 18.3756 8.83518 18.2882L4.46018 13.9132C4.37298 13.8259 4.3038 13.7224 4.25661 13.6085C4.20941 13.4945 4.18512 13.3724 4.18512 13.2491C4.18512 13.1258 4.20941 13.0036 4.25661 12.8897C4.3038 12.7758 4.37298 12.6722 4.46018 12.585C4.54739 12.4978 4.65092 12.4286 4.76486 12.3814C4.8788 12.3343 5.00092 12.31 5.12425 12.31C5.24757 12.31 5.36969 12.3343 5.48363 12.3814C5.59757 12.4286 5.7011 12.4978 5.78831 12.585L9.50003 16.2967L18.8367 6.96159C19.0129 6.78547 19.2517 6.68652 19.5008 6.68652C19.7499 6.68652 19.9887 6.78547 20.1649 6.96159C20.341 7.13771 20.4399 7.37658 20.4399 7.62565C20.4399 7.87472 20.341 8.11359 20.1649 8.28971L20.1633 8.28815Z" fill="#0E5D33"/>
</svg>
