<?xml version="1.0" encoding="utf-8"?>
<!-- Generator: Adobe Illustrator 26.1.0, SVG Export Plug-In . SVG Version: 6.00 Build 0)  -->
<svg version="1.1" id="Capa_1" xmlns="http://www.w3.org/2000/svg" xmlns:xlink="http://www.w3.org/1999/xlink" x="0px" y="0px"
	 viewBox="0 0 78.6 31.8" style="enable-background:new 0 0 78.6 31.8;" xml:space="preserve">
<style type="text/css">
	.st0{fill:#111012;}
</style>
<path class="st0" d="M27.7,0.3c-0.2,1.2-0.3,2.9-0.3,5.3v20.8c0,2.4,0.1,3.6,0.3,5.3h-7c0.2-1.6,0.3-2.9,0.3-5.3v-8.2H6.7v8.2
	c0,2.4,0.1,3.6,0.3,5.3H0c0.2-1.5,0.3-2.8,0.3-5.3V5.7c0-2.5-0.1-3.8-0.3-5.3h7C6.7,2,6.7,3.4,6.7,5.6v7H21V5.7
	c0-2.4-0.1-3.9-0.3-5.3H27.7z"/>
<path class="st0" d="M40,0.3c-0.2,1.5-0.3,2.7-0.3,5.3v20.8c0,2.5,0.1,3.8,0.3,5.3h-7.1c0.2-1.5,0.3-2.9,0.3-5.3V5.7
	c0-2.7-0.1-3.7-0.3-5.3H40z"/>
<path class="st0" d="M51.9,26c0,2.9,0.1,4.3,0.3,5.8h-7c0.2-1.4,0.3-3.1,0.3-5.7V5.5c0-2.3-0.1-3.5-0.3-5.3c1.5,0.1,2.6,0.1,5.3,0.1
	h11.3c2.6,0,3.9-0.1,5.6-0.3v6.2c-1.5-0.2-3-0.3-5.5-0.3h-9.9v7.3h7.9c2.6,0,3.9-0.1,5.5-0.3v6.1c-1.5-0.2-3.1-0.3-5.5-0.3h-7.9V26z
	"/>
<path class="st0" d="M78,0.3c-0.2,1.5-0.3,2.7-0.3,5.3v20.8c0,2.5,0.1,3.8,0.3,5.3h-7.1c0.2-1.5,0.3-2.9,0.3-5.3V5.7
	c0-2.7-0.1-3.7-0.3-5.3H78z"/>
</svg>
