<svg width="34" height="34" viewBox="0 0 34 34" fill="none" xmlns="http://www.w3.org/2000/svg">
<g id="Clip path group">
<mask id="mask0_1823_31919" style="mask-type:luminance" maskUnits="userSpaceOnUse" x="0" y="0" width="34" height="34">
<g id="clippath">
<path id="Vector" d="M33.25 0.75H0.75V33.25H33.25V0.75Z" fill="white"/>
</g>
</mask>
<g mask="url(#mask0_1823_31919)">
<g id="Group">
<path id="Vector_2" fill-rule="evenodd" clip-rule="evenodd" d="M1.85329 6.29211C0.75 8.46447 0.75 11.3125 0.75 17C0.75 22.6875 0.75 25.5355 1.85329 27.7079C2.82829 29.6151 4.38487 31.1717 6.29211 32.1467C8.46447 33.25 11.3125 33.25 17 33.25C22.6875 33.25 25.5355 33.25 27.7079 32.1467C29.6151 31.1717 31.1717 29.6151 32.1467 27.7079C33.25 25.5355 33.25 22.6875 33.25 17C33.25 11.3125 33.25 8.46447 32.1467 6.29211C31.1717 4.38487 29.6151 2.82829 27.7079 1.85329C25.5355 0.75 22.6875 0.75 17 0.75C11.3125 0.75 8.46447 0.75 6.29211 1.85329C4.38487 2.82829 2.82829 4.38487 1.85329 6.29211ZM25.1079 9.50789C25.3901 9.50789 25.6638 9.62763 25.8605 9.82434C26.0572 10.0296 26.1684 10.3033 26.1684 10.577C26.1171 13.6046 25.9974 15.9224 25.7836 17.7526C25.5697 19.5829 25.2533 20.9428 24.7658 22.0461C24.4408 22.7816 24.0388 23.3888 23.5684 23.9105C22.9355 24.5947 22.2086 25.0908 21.4132 25.5697C21.0711 25.775 20.7204 25.9717 20.3526 26.1855C19.5658 26.6303 18.702 27.1263 17.7184 27.7849C17.3592 28.0243 16.8974 28.0243 16.5467 27.7849C15.5461 27.1178 14.6737 26.6217 13.8783 26.1684C13.6987 26.0658 13.5276 25.9717 13.3566 25.8691C12.4243 25.3303 11.5862 24.8171 10.8592 24.073C10.3717 23.5855 9.95263 22.9954 9.61908 22.2855C9.16579 21.3447 8.84934 20.1987 8.62697 18.7191C8.31908 16.7434 8.17368 14.1605 8.11382 10.577C8.11382 10.2947 8.21645 10.0211 8.41316 9.82434C8.60987 9.62763 8.88355 9.50789 9.16579 9.50789H9.60197C10.9447 9.50789 13.9211 9.37961 16.4868 7.37829C16.8717 7.0875 17.402 7.0875 17.7783 7.37829C20.3441 9.37961 23.3204 9.50789 24.6717 9.50789H25.1164H25.1079ZM22.7474 21.3789C23.0809 20.6947 23.3546 19.7625 23.5599 18.4112C23.8079 16.7947 23.9618 14.6053 24.0303 11.6204C22.448 11.5776 19.7283 11.2697 17.1283 9.525C14.5368 11.2697 11.8086 11.5691 10.2349 11.6204C10.2947 14.0921 10.4059 16.0079 10.577 17.5132C10.7822 19.2322 11.073 20.3954 11.4322 21.2079C11.6717 21.7553 11.9368 22.1401 12.2533 22.4908C12.6724 22.9526 13.2112 23.3375 13.9382 23.7737C14.2375 23.9533 14.5711 24.1414 14.9303 24.3467C15.5717 24.7145 16.3158 25.125 17.1368 25.6553C17.9408 25.1421 18.6678 24.723 19.3092 24.3638C19.4974 24.2526 19.6855 24.15 19.8566 24.0474C20.7546 23.5342 21.4132 23.1066 21.9007 22.6105C22.2342 22.2684 22.4993 21.9007 22.7474 21.3875V21.3789Z" fill="#3375BB"/>
</g>
</g>
</g>
</svg>
