<svg width="64" height="64" viewBox="0 0 64 64" fill="none" xmlns="http://www.w3.org/2000/svg">
<g id="UploadSimple">
<path id="Vector" d="M56 37.9996V51.9996C56 53.0605 55.5786 54.0779 54.8284 54.828C54.0783 55.5782 53.0609 55.9996 52 55.9996H12C10.9391 55.9996 9.92172 55.5782 9.17157 54.828C8.42143 54.0779 8 53.0605 8 51.9996V37.9996C8 37.4692 8.21071 36.9605 8.58579 36.5854C8.96086 36.2103 9.46957 35.9996 10 35.9996C10.5304 35.9996 11.0391 36.2103 11.4142 36.5854C11.7893 36.9605 12 37.4692 12 37.9996V51.9996H52V37.9996C52 37.4692 52.2107 36.9605 52.5858 36.5854C52.9609 36.2103 53.4696 35.9996 54 35.9996C54.5304 35.9996 55.0391 36.2103 55.4142 36.5854C55.7893 36.9605 56 37.4692 56 37.9996ZM23.415 21.4146L30 14.8271V37.9996C30 38.5301 30.2107 39.0388 30.5858 39.4138C30.9609 39.7889 31.4696 39.9996 32 39.9996C32.5304 39.9996 33.0391 39.7889 33.4142 39.4138C33.7893 39.0388 34 38.5301 34 37.9996V14.8271L40.585 21.4146C40.9603 21.7899 41.4693 22.0007 42 22.0007C42.5307 22.0007 43.0397 21.7899 43.415 21.4146C43.7903 21.0393 44.0011 20.5303 44.0011 19.9996C44.0011 19.4689 43.7903 18.9599 43.415 18.5846L33.415 8.58462C33.2293 8.39867 33.0087 8.25115 32.7659 8.1505C32.5231 8.04985 32.2628 7.99805 32 7.99805C31.7372 7.99805 31.4769 8.04985 31.2341 8.1505C30.9913 8.25115 30.7707 8.39867 30.585 8.58462L20.585 18.5846C20.2097 18.9599 19.9989 19.4689 19.9989 19.9996C19.9989 20.5303 20.2097 21.0393 20.585 21.4146C20.9603 21.7899 21.4693 22.0007 22 22.0007C22.5307 22.0007 23.0397 21.7899 23.415 21.4146Z" fill="#111012"/>
</g>
</svg>
