<svg width="11" height="11" viewBox="0 0 11 11" fill="none" xmlns="http://www.w3.org/2000/svg">
<g clip-path="url(#clip0_392_12267)">
<path d="M7.21873 4.1817C6.92676 4.1817 6.69087 3.94581 6.69087 3.65384C6.69087 3.36186 6.92676 3.12598 7.21873 3.12598H9.85804C10.15 3.12598 10.3859 3.36186 10.3859 3.65384V6.29314C10.3859 6.58512 10.15 6.821 9.85804 6.821C9.56607 6.821 9.33018 6.58512 9.33018 6.29314V4.92895L6.53581 7.72167C6.32962 7.92786 5.99641 7.92786 5.79021 7.72167L4.03672 5.98467L1.78556 8.24953C1.57936 8.45573 1.24516 8.45573 1.039 8.24953C0.832867 8.04333 0.832867 7.71012 1.039 7.50393L3.67876 4.86462C3.88496 4.65842 4.21817 4.65842 4.42437 4.86462L6.16301 6.60161L8.58293 4.16685L7.21873 4.1817Z" fill="#65A30D"/>
</g>
<defs>
<clipPath id="clip0_392_12267">
<rect width="10.6892" height="10.6892" fill="white" transform="translate(0.290527 0.15625)"/>
</clipPath>
</defs>
</svg>
