<svg width="24" height="24" viewBox="0 0 24 24" fill="none" xmlns="http://www.w3.org/2000/svg">
<path d="M15.4375 11.375C15.4375 12.0549 15.2359 12.7195 14.8582 13.2848C14.4805 13.8501 13.9436 14.2907 13.3155 14.5508C12.6874 14.811 11.9962 14.8791 11.3294 14.7464C10.6626 14.6138 10.0501 14.2864 9.56932 13.8057C9.08858 13.3249 8.76119 12.7124 8.62855 12.0456C8.49592 11.3788 8.56399 10.6876 8.82417 10.0595C9.08434 9.4314 9.52494 8.89454 10.0902 8.51682C10.6555 8.13911 11.3201 7.9375 12 7.9375C12.9114 7.93853 13.7851 8.30103 14.4295 8.94546C15.074 9.58989 15.4365 10.4636 15.4375 11.375ZM20.125 12C20.125 13.607 19.6485 15.1779 18.7557 16.514C17.8629 17.8502 16.594 18.8916 15.1093 19.5065C13.6247 20.1215 11.991 20.2824 10.4149 19.9689C8.8388 19.6554 7.39106 18.8815 6.25476 17.7452C5.11846 16.6089 4.34463 15.1612 4.03112 13.5851C3.71762 12.009 3.87852 10.3753 4.49348 8.8907C5.10844 7.40605 6.14985 6.1371 7.486 5.24431C8.82214 4.35152 10.393 3.875 12 3.875C14.1542 3.87727 16.2195 4.73403 17.7427 6.25727C19.266 7.78051 20.1227 9.84581 20.125 12ZM18.875 12C18.874 11.0746 18.6864 10.159 18.3234 9.30778C17.9604 8.45658 17.4295 7.68734 16.7624 7.04604C16.0952 6.40475 15.3056 5.90457 14.4408 5.57544C13.5759 5.2463 12.6536 5.09496 11.7289 5.13047C8.04922 5.27266 5.11485 8.3375 5.125 12.0195C5.12853 13.6957 5.74674 15.3124 6.8625 16.5633C7.3169 15.9042 7.8941 15.339 8.5625 14.8984C8.61949 14.8608 8.68724 14.8429 8.75539 14.8474C8.82353 14.8519 8.88832 14.8786 8.93985 14.9234C9.78921 15.6581 10.8747 16.0624 11.9977 16.0624C13.1207 16.0624 14.2061 15.6581 15.0555 14.9234C15.107 14.8786 15.1718 14.8519 15.2399 14.8474C15.3081 14.8429 15.3758 14.8608 15.4328 14.8984C16.1021 15.3387 16.6801 15.904 17.1352 16.5633C18.2564 15.3078 18.8758 13.6833 18.875 12Z" fill="#111012"/>
</svg>
