<svg width="21" height="20" viewBox="0 0 21 20" fill="none" xmlns="http://www.w3.org/2000/svg">
<g id="Warning">
<path id="Vector" d="M19 14.6946L12.168 2.82974C11.9972 2.53906 11.7535 2.29803 11.4609 2.13057C11.1684 1.9631 10.8371 1.875 10.5 1.875C10.1629 1.875 9.83161 1.9631 9.53904 2.13057C9.24647 2.29803 9.00274 2.53906 8.83202 2.82974L1.99998 14.6946C1.83571 14.9757 1.74915 15.2955 1.74915 15.6211C1.74915 15.9468 1.83571 16.2665 1.99998 16.5477C2.16852 16.8401 2.41184 17.0825 2.70495 17.2498C2.99807 17.4172 3.33044 17.5036 3.66795 17.5001H17.332C17.6693 17.5033 18.0013 17.4168 18.2941 17.2494C18.5869 17.0821 18.83 16.8399 18.9984 16.5477C19.1629 16.2667 19.2498 15.947 19.25 15.6214C19.2503 15.2957 19.164 14.9759 19 14.6946ZM9.87498 8.12505C9.87498 7.95929 9.94083 7.80032 10.058 7.68311C10.1753 7.5659 10.3342 7.50005 10.5 7.50005C10.6657 7.50005 10.8247 7.5659 10.9419 7.68311C11.0591 7.80032 11.125 7.95929 11.125 8.12505V11.2501C11.125 11.4158 11.0591 11.5748 10.9419 11.692C10.8247 11.8092 10.6657 11.8751 10.5 11.8751C10.3342 11.8751 10.1753 11.8092 10.058 11.692C9.94083 11.5748 9.87498 11.4158 9.87498 11.2501V8.12505ZM10.5 15.0001C10.3146 15.0001 10.1333 14.9451 9.97914 14.8421C9.82497 14.739 9.7048 14.5926 9.63385 14.4213C9.56289 14.25 9.54432 14.0615 9.5805 13.8797C9.61667 13.6978 9.70596 13.5308 9.83707 13.3996C9.96818 13.2685 10.1352 13.1792 10.3171 13.1431C10.4989 13.1069 10.6874 13.1255 10.8587 13.1964C11.0301 13.2674 11.1765 13.3875 11.2795 13.5417C11.3825 13.6959 11.4375 13.8771 11.4375 14.0626C11.4375 14.3112 11.3387 14.5496 11.1629 14.7255C10.9871 14.9013 10.7486 15.0001 10.5 15.0001Z" fill="#D5672B"/>
</g>
</svg>
