<svg width="20" height="21" viewBox="0 0 20 21" fill="none" xmlns="http://www.w3.org/2000/svg">
<g id="X">
<path id="Vector" d="M16.2883 15.462C16.4644 15.6381 16.5633 15.877 16.5633 16.126C16.5633 16.3751 16.4644 16.614 16.2883 16.7901C16.1122 16.9662 15.8733 17.0652 15.6242 17.0652C15.3751 17.0652 15.1363 16.9662 14.9602 16.7901L10 11.8284L5.03828 16.7885C4.86216 16.9647 4.62329 17.0636 4.37422 17.0636C4.12515 17.0636 3.88628 16.9647 3.71016 16.7885C3.53404 16.6124 3.43509 16.3736 3.43509 16.1245C3.43509 15.8754 3.53404 15.6365 3.71016 15.4604L8.67188 10.5003L3.71172 5.53854C3.5356 5.36242 3.43666 5.12355 3.43666 4.87448C3.43666 4.62541 3.5356 4.38654 3.71172 4.21042C3.88784 4.03429 4.12671 3.93535 4.37578 3.93535C4.62485 3.93535 4.86372 4.03429 5.03984 4.21042L10 9.17213L14.9617 4.20963C15.1378 4.03351 15.3767 3.93457 15.6258 3.93457C15.8749 3.93457 16.1137 4.03351 16.2898 4.20963C16.466 4.38575 16.5649 4.62462 16.5649 4.8737C16.5649 5.12277 16.466 5.36164 16.2898 5.53776L11.3281 10.5003L16.2883 15.462Z" fill="#C41200"/>
</g>
</svg>
