<?xml version="1.0" encoding="utf-8"?>
<!-- Generator: Adobe Illustrator 26.1.0, SVG Export Plug-In . SVG Version: 6.00 Build 0)  -->
<svg version="1.1" id="Capa_1" xmlns="http://www.w3.org/2000/svg" xmlns:xlink="http://www.w3.org/1999/xlink" x="0px" y="0px"
	 viewBox="0 0 25 24" style="enable-background:new 0 0 25 24;" xml:space="preserve">
<style type="text/css">
	.st0{fill:none;stroke:#FFFFFF;stroke-width:1.5;stroke-linecap:round;stroke-linejoin:round;}
</style>
<path class="st0" d="M3,22h18"/>
<path class="st0" d="M5.6,8.4H4c-0.6,0-1,0.4-1,1V18c0,0.5,0.5,1,1,1h1.6c0.5,0,1-0.5,1-1V9.4C6.6,8.8,6.2,8.4,5.6,8.4z"/>
<path class="st0" d="M12.8,5.2h-1.6c-0.6,0-1,0.4-1,1V18c0,0.5,0.4,1,1,1h1.6c0.5,0,1-0.5,1-1V6.2C13.8,5.6,13.4,5.2,12.8,5.2z"/>
<path class="st0" d="M20,2h-1.6c-0.6,0-1,0.5-1,1v15c0,0.5,0.4,1,1,1H20c0.6,0,1-0.5,1-1V3C21,2.5,20.6,2,20,2z"/>
</svg>
