<svg width="24" height="24" viewBox="0 0 24 24" fill="none" xmlns="http://www.w3.org/2000/svg">
<path d="M14.8492 17.2835C14.9107 17.3778 14.9456 17.487 14.9502 17.5995C14.9548 17.712 14.9289 17.8236 14.8753 17.9226C14.8217 18.0216 14.7423 18.1043 14.6456 18.1619C14.5489 18.2195 14.4384 18.2499 14.3258 18.2499H2.79924C2.68666 18.2499 2.57617 18.2195 2.47945 18.1619C2.38273 18.1043 2.30337 18.0216 2.24975 17.9226C2.19613 17.8236 2.17025 17.712 2.17484 17.5995C2.17942 17.487 2.21431 17.3778 2.2758 17.2835C3.15557 15.9293 4.44962 14.8959 5.96487 14.3374C5.12721 13.7798 4.49125 12.9674 4.15104 12.0203C3.81082 11.0732 3.78441 10.0418 4.07572 9.07862C4.36702 8.1154 4.96057 7.27149 5.76859 6.67169C6.57662 6.07189 7.55621 5.74805 8.56252 5.74805C9.56883 5.74805 10.5484 6.07189 11.3564 6.67169C12.1645 7.27149 12.758 8.1154 13.0493 9.07862C13.3406 10.0418 13.3142 11.0732 12.974 12.0203C12.6338 12.9674 11.9978 13.7798 11.1602 14.3374C12.6754 14.8959 13.9695 15.9293 14.8492 17.2835ZM21.7172 17.2718C20.8372 15.9233 19.546 14.8943 18.0352 14.3374C19.0241 13.6713 19.722 12.6534 19.9868 11.4908C20.2516 10.3283 20.0635 9.10853 19.4607 8.07981C18.8578 7.0511 17.8857 6.29076 16.742 5.95357C15.5984 5.61637 14.3692 5.72766 13.3047 6.26479C13.264 6.28581 13.2284 6.31552 13.2005 6.35182C13.1725 6.38811 13.1529 6.43011 13.143 6.47483C13.1331 6.51956 13.1331 6.56592 13.1431 6.61062C13.1531 6.65533 13.1728 6.69729 13.2008 6.73354C13.9923 7.72089 14.4469 8.93576 14.498 10.2002C14.549 11.4646 14.1938 12.7122 13.4844 13.7601C13.4385 13.8286 13.4216 13.9124 13.4373 13.9933C13.4529 14.0742 13.4999 14.1457 13.568 14.1921C14.4929 14.8377 15.2847 15.6554 15.9 16.6007C16.1482 16.9808 16.2495 17.4381 16.1852 17.8874C16.1779 17.9321 16.1805 17.9779 16.1927 18.0215C16.2048 18.0651 16.2263 18.1055 16.2557 18.14C16.285 18.1745 16.3215 18.2022 16.3626 18.2212C16.4038 18.2401 16.4485 18.25 16.4938 18.2499H21.2047C21.3423 18.25 21.4761 18.2046 21.5853 18.1208C21.6945 18.0371 21.773 17.9196 21.8086 17.7867C21.8303 17.6992 21.8334 17.6082 21.8177 17.5195C21.8019 17.4308 21.7677 17.3464 21.7172 17.2718Z" fill="white"/>
</svg>
