<svg width="24" height="24" viewBox="0 0 24 24" fill="none" xmlns="http://www.w3.org/2000/svg">
<path d="M19.5 11.0275V18.2501C19.5 18.5817 19.3683 18.8996 19.1339 19.134C18.8995 19.3684 18.5815 19.5001 18.25 19.5001H15.125C14.7935 19.5001 14.4755 19.3684 14.2411 19.134C14.0067 18.8996 13.875 18.5817 13.875 18.2501V15.1251C13.875 14.9594 13.8092 14.8004 13.6919 14.6832C13.5747 14.566 13.4158 14.5001 13.25 14.5001H10.75C10.5842 14.5001 10.4253 14.566 10.3081 14.6832C10.1908 14.8004 10.125 14.9594 10.125 15.1251V18.2501C10.125 18.5817 9.9933 18.8996 9.75888 19.134C9.52446 19.3684 9.20652 19.5001 8.875 19.5001H5.75C5.41848 19.5001 5.10054 19.3684 4.86612 19.134C4.6317 18.8996 4.5 18.5817 4.5 18.2501V11.0275C4.49997 10.8545 4.53586 10.6834 4.60538 10.5249C4.67491 10.3665 4.77656 10.2243 4.90391 10.1072L11.1539 4.21029L11.1625 4.2017C11.3926 3.99243 11.6925 3.87646 12.0035 3.87646C12.3146 3.87646 12.6144 3.99243 12.8445 4.2017C12.8472 4.20476 12.8501 4.20763 12.8531 4.21029L19.1031 10.1072C19.2292 10.2249 19.3295 10.3674 19.3978 10.5258C19.4661 10.6842 19.5009 10.855 19.5 11.0275Z" fill="white"/>
</svg>
