<svg width="24" height="24" viewBox="0 0 24 24" fill="none" xmlns="http://www.w3.org/2000/svg">
<path d="M18.25 5.75H5.75C5.25272 5.75 4.77581 5.94754 4.42417 6.29917C4.07254 6.65081 3.875 7.12772 3.875 7.625V16.375C3.875 16.8723 4.07254 17.3492 4.42417 17.7008C4.77581 18.0525 5.25272 18.25 5.75 18.25H18.25C18.7473 18.25 19.2242 18.0525 19.5758 17.7008C19.9275 17.3492 20.125 16.8723 20.125 16.375V7.625C20.125 7.12772 19.9275 6.65081 19.5758 6.29917C19.2242 5.94754 18.7473 5.75 18.25 5.75ZM13.8375 11.7508C13.7499 12.173 13.5196 12.5521 13.1851 12.8243C12.8507 13.0964 12.4327 13.245 12.0016 13.245C11.5704 13.245 11.1524 13.0964 10.818 12.8243C10.4836 12.5521 10.2532 12.173 10.1656 11.7508C10.1081 11.4679 9.95438 11.2137 9.73065 11.0312C9.50693 10.8488 9.22696 10.7494 8.93828 10.75H5.125V9.5H18.875V10.75H15.0617C14.7736 10.7502 14.4943 10.8499 14.2713 11.0322C14.0482 11.2146 13.8949 11.4684 13.8375 11.7508ZM5.75 7H18.25C18.4158 7 18.5747 7.06585 18.6919 7.18306C18.8092 7.30027 18.875 7.45924 18.875 7.625V8.25H5.125V7.625C5.125 7.45924 5.19085 7.30027 5.30806 7.18306C5.42527 7.06585 5.58424 7 5.75 7Z" fill="white"/>
</svg>
