<svg width="24" height="24" viewBox="0 0 24 24" fill="none" xmlns="http://www.w3.org/2000/svg">
<path d="M21.375 18.2504C21.375 18.4162 21.3092 18.5751 21.1919 18.6923C21.0747 18.8095 20.9158 18.8754 20.75 18.8754H3.25C3.08424 18.8754 2.92527 18.8095 2.80806 18.6923C2.69085 18.5751 2.625 18.4162 2.625 18.2504C2.625 18.0846 2.69085 17.9257 2.80806 17.8084C2.92527 17.6912 3.08424 17.6254 3.25 17.6254H20.75C20.9158 17.6254 21.0747 17.6912 21.1919 17.8084C21.3092 17.9257 21.375 18.0846 21.375 18.2504ZM3.27344 9.67071C3.23626 9.53964 3.24294 9.40001 3.29244 9.27308C3.34194 9.14615 3.43156 9.03888 3.54766 8.96758L11.6727 3.96758C11.7711 3.90705 11.8844 3.875 12 3.875C12.1156 3.875 12.2289 3.90705 12.3273 3.96758L20.4523 8.96758C20.5685 9.03879 20.6582 9.14599 20.7078 9.27286C20.7573 9.39974 20.7641 9.53935 20.7271 9.67043C20.69 9.80152 20.6111 9.9169 20.5024 9.99903C20.3938 10.0812 20.2612 10.1255 20.125 10.1254H18.25V15.1254H19.5C19.6658 15.1254 19.8247 15.1912 19.9419 15.3084C20.0592 15.4257 20.125 15.5846 20.125 15.7504C20.125 15.9162 20.0592 16.0751 19.9419 16.1923C19.8247 16.3095 19.6658 16.3754 19.5 16.3754H4.5C4.33424 16.3754 4.17527 16.3095 4.05806 16.1923C3.94085 16.0751 3.875 15.9162 3.875 15.7504C3.875 15.5846 3.94085 15.4257 4.05806 15.3084C4.17527 15.1912 4.33424 15.1254 4.5 15.1254H5.75V10.1254H3.875C3.7389 10.1254 3.6065 10.0811 3.49792 9.99899C3.38935 9.91692 3.31053 9.80166 3.27344 9.67071ZM13.25 14.5004C13.25 14.6662 13.3158 14.8251 13.4331 14.9423C13.5503 15.0595 13.7092 15.1254 13.875 15.1254C14.0408 15.1254 14.1997 15.0595 14.3169 14.9423C14.4342 14.8251 14.5 14.6662 14.5 14.5004V10.7504C14.5 10.5846 14.4342 10.4257 14.3169 10.3085C14.1997 10.1912 14.0408 10.1254 13.875 10.1254C13.7092 10.1254 13.5503 10.1912 13.4331 10.3085C13.3158 10.4257 13.25 10.5846 13.25 10.7504V14.5004ZM9.5 14.5004C9.5 14.6662 9.56585 14.8251 9.68306 14.9423C9.80027 15.0595 9.95924 15.1254 10.125 15.1254C10.2908 15.1254 10.4497 15.0595 10.5669 14.9423C10.6842 14.8251 10.75 14.6662 10.75 14.5004V10.7504C10.75 10.5846 10.6842 10.4257 10.5669 10.3085C10.4497 10.1912 10.2908 10.1254 10.125 10.1254C9.95924 10.1254 9.80027 10.1912 9.68306 10.3085C9.56585 10.4257 9.5 10.5846 9.5 10.7504V14.5004Z" fill="#252C32"/>
</svg>
